<svg width="25" height="16" viewBox="0 0 25 16" fill="none" xmlns="http://www.w3.org/2000/svg">
    <mask id="mask0_520_401" style="mask-type:alpha" maskUnits="userSpaceOnUse" x="0" y="0" width="25" height="16">
        <rect x="0.5" width="24" height="16" rx="4" fill="#8D8686"/>
    </mask>
        <path d="M0.5 0H6.5L6.7475 0.33H18.2525L18.5 0H24.5V16H18.5L18.2525 15.67H6.7475L6.5 16H0.5V0Z" fill="#D52B1E"/>
        <path d="M6.5 0H18.5V16H6.5V0ZM12.725 12.9622L12.6125 10.8527C12.6109 10.818 12.6172 10.7834 12.6311 10.7514C12.6449 10.7194 12.6659 10.6909 12.6926 10.6679C12.7192 10.6449 12.7507 10.6281 12.7849 10.6186C12.8191 10.6091 12.855 10.6072 12.89 10.6131L15.0375 10.9822L14.7475 10.2C14.7357 10.1689 14.7342 10.1349 14.7432 10.1029C14.7522 10.0709 14.7712 10.0425 14.7975 10.0216L17.15 8.15889L16.62 7.91689C16.5842 7.90035 16.5558 7.8716 16.5402 7.83604C16.5245 7.80049 16.5227 7.76057 16.535 7.72378L17 6.32556L15.645 6.60667C15.6083 6.61415 15.5701 6.60899 15.5368 6.59206C15.5035 6.57513 15.4773 6.54747 15.4625 6.51378L15.2 5.91L14.1425 7.01978C14.1183 7.04472 14.0865 7.06132 14.0519 7.06709C14.0172 7.07286 13.9816 7.0675 13.9503 7.0518C13.9191 7.0361 13.8939 7.01092 13.8785 6.98003C13.8631 6.94913 13.8584 6.91419 13.865 6.88044L14.375 4.30889L13.5575 4.77089C13.5383 4.78189 13.517 4.78892 13.4949 4.79154C13.4728 4.79416 13.4504 4.79232 13.4291 4.78613C13.4078 4.77995 13.388 4.76954 13.3709 4.75557C13.3539 4.74159 13.34 4.72434 13.33 4.70489L12.5 3.11111L11.67 4.70489C11.66 4.72434 11.6461 4.74159 11.6291 4.75557C11.612 4.76954 11.5922 4.77995 11.5709 4.78613C11.5496 4.79232 11.5272 4.79416 11.5051 4.79154C11.483 4.78892 11.4617 4.78189 11.4425 4.77089L10.625 4.30889L11.135 6.88044C11.1416 6.91419 11.1369 6.94913 11.1215 6.98003C11.1061 7.01092 11.0809 7.0361 11.0497 7.0518C11.0184 7.0675 10.9828 7.07286 10.9481 7.06709C10.9135 7.06132 10.8817 7.04472 10.8575 7.01978L9.8 5.91L9.5375 6.51378C9.52271 6.54747 9.49646 6.57513 9.4632 6.59206C9.42994 6.60899 9.39171 6.61415 9.355 6.60667L8 6.32556L8.465 7.72378C8.47732 7.76057 8.47549 7.80049 8.45984 7.83604C8.44418 7.8716 8.4158 7.90035 8.38 7.91689L7.85 8.15889L10.2025 10.0216C10.2288 10.0425 10.2478 10.0709 10.2568 10.1029C10.2658 10.1349 10.2643 10.1689 10.2525 10.2L9.9625 10.9822L12.11 10.6131C12.145 10.6072 12.1809 10.6091 12.2151 10.6186C12.2493 10.6281 12.2808 10.6449 12.3074 10.6679C12.3341 10.6909 12.3551 10.7194 12.3689 10.7514C12.3828 10.7834 12.3891 10.818 12.3875 10.8527L12.275 12.9622H12.725Z"
              fill="white"/>
        <rect y="-1" width="25" height="18" rx="2" fill="white"/>
        <mask id="mask1_520_401" style="mask-type:alpha" maskUnits="userSpaceOnUse" x="0" y="-1" width="25" height="18">
            <rect y="-1" width="25" height="18" rx="2" fill="white"/>
        </mask>
        <g mask="url(#mask1_520_401)">
            <path fill-rule="evenodd" clip-rule="evenodd" d="M-1.19043 18.2H26.1905V-2.19995H-1.19043V18.2Z"
                  fill="#FE3030"/>
            <path fill-rule="evenodd" clip-rule="evenodd" d="M-1.19043 8.60005H13.0953V-2.19995H-1.19043V8.60005Z"
                  fill="#0909B6"/>
            <path fill-rule="evenodd" clip-rule="evenodd"
                  d="M6.54748 5.30005L5.40854 6.57169L5.49524 4.86071L3.79784 4.9481L5.05938 3.80005L3.79784 2.652L5.49524 2.73939L5.40854 1.02841L6.54748 2.30005L7.68642 1.02841L7.59972 2.73939L9.29712 2.652L8.03557 3.80005L9.29712 4.9481L7.59972 4.86071L7.68642 6.57169L6.54748 5.30005Z"
                  fill="white"/>
        </g>
</svg>
