<svg width="27" height="18" viewBox="0 0 27 18" fill="none" xmlns="http://www.w3.org/2000/svg">
    <rect y="0.000244141" width="26.9991" height="17.9996" fill="#F4F7FC"/>
    <path d="M15.187 0H11.8121V7.31223H0V10.6871H11.8121V17.9994H15.187V10.6871H26.9991V7.31223H15.187V0Z"
          fill="#D80027"/>
    <path d="M20.7651 12.1301L26.9989 15.5934V12.1301H20.7651Z" fill="#0052B4"/>
    <path d="M16.4351 12.1301L26.9999 17.9995V16.3398L19.4226 12.1301H16.4351Z" fill="#0052B4"/>
    <path d="M24.1858 17.9994L16.4351 13.693V17.9994H24.1858Z" fill="#0052B4"/>
    <path d="M16.4351 12.1301L26.9999 17.9995V16.3398L19.4226 12.1301H16.4351Z" fill="#F4F7FC"/>
    <path d="M16.4351 12.1301L26.9999 17.9995V16.3398L19.4226 12.1301H16.4351Z" fill="#D80027"/>
    <path d="M4.76392 12.1299L0 14.7765V12.1299H4.76392Z" fill="#0052B4"/>
    <path d="M10.5654 12.8762V17.9993H1.34473L10.5654 12.8762Z" fill="#0052B4"/>
    <path d="M7.57731 12.1301L0 16.3398V17.9995L10.5649 12.1301H7.57731Z" fill="#D80027"/>
    <path d="M6.23379 5.86952L0 2.40625V5.86952H6.23379Z" fill="#0052B4"/>
    <path d="M10.5649 5.86936L0 0V1.65971L7.57731 5.86936H10.5649Z" fill="#0052B4"/>
    <path d="M2.81299 0L10.5637 4.30636V0H2.81299Z" fill="#0052B4"/>
    <path d="M10.5649 5.86936L0 0V1.65971L7.57731 5.86936H10.5649Z" fill="#F4F7FC"/>
    <path d="M10.5649 5.86936L0 0V1.65971L7.57731 5.86936H10.5649Z" fill="#D80027"/>
    <path d="M22.2363 5.86931L27.0002 3.22266V5.86931H22.2363Z" fill="#0052B4"/>
    <path d="M16.4351 5.12304V0H25.6557L16.4351 5.12304Z" fill="#0052B4"/>
    <path d="M19.4226 5.86936L26.9999 1.65971V0L16.4351 5.86936H19.4226Z" fill="#D80027"/>
</svg>
