<svg width="25" height="24" viewBox="0 0 25 24" fill="none" xmlns="http://www.w3.org/2000/svg">
<path fill-rule="evenodd" clip-rule="evenodd" d="M14.3991 18.6001C14.5491 18.7501 14.7391 18.8201 14.9291 18.8201C15.1191 18.8201 15.3091 18.7501 15.4591 18.6001L21.5291 12.5301C21.8191 12.2401 21.8191 11.7601 21.5291 11.4701L15.4591 5.40012C15.1691 5.11012 14.6891 5.11012 14.3991 5.40012C14.1091 5.69012 14.1091 6.17012 14.3991 6.46012L19.189 11.25H4C3.59 11.25 3.25 11.59 3.25 12C3.25 12.41 3.59 12.75 4 12.75H19.1892L14.3991 17.5401C14.1091 17.8301 14.1091 18.3101 14.3991 18.6001Z" fill="#3C3C43" fill-opacity="0.6"/>
</svg>
