<svg width="28" height="28" viewBox="0 0 28 28" fill="none" xmlns="http://www.w3.org/2000/svg">
<path d="M7.1777 13.4806C7.17772 13.3494 7.20365 13.2196 7.254 13.0985C7.30434 12.9774 7.37811 12.8674 7.47107 12.7749C7.56403 12.6824 7.67435 12.6092 7.79569 12.5594C7.91703 12.5097 8.047 12.4844 8.17815 12.485L9.83679 12.4904C10.1013 12.4904 10.3549 12.5954 10.5419 12.7825C10.7289 12.9695 10.834 13.2231 10.834 13.4875V19.7597C11.0208 19.7044 11.2598 19.6453 11.5229 19.5834C11.7052 19.5405 11.8676 19.4373 11.9839 19.2905C12.1002 19.1438 12.1635 18.962 12.1635 18.7748V10.9951C12.1635 10.7306 12.2686 10.477 12.4556 10.29C12.6426 10.1029 12.8962 9.99783 13.1607 9.99778H14.8243C15.0888 9.99783 15.3425 10.1029 15.5295 10.29C15.7165 10.477 15.8215 10.7306 15.8215 10.9951V18.2159C15.8215 18.2159 16.2377 18.0475 16.6429 17.8763C16.7934 17.8127 16.9219 17.7061 17.0123 17.5698C17.1027 17.4336 17.1509 17.2738 17.151 17.1103V8.50213C17.151 8.2377 17.2561 7.9841 17.443 7.7971C17.63 7.6101 17.8836 7.50502 18.148 7.50497H19.81C20.0742 7.50523 20.3276 7.6104 20.5144 7.79738C20.7012 7.98435 20.8061 8.23784 20.8061 8.50213V15.5907C22.247 14.5465 23.7072 13.2905 24.866 11.7803C25.0342 11.5611 25.1454 11.3037 25.1899 11.031C25.2343 10.7584 25.2106 10.4789 25.1208 10.2177C24.5844 8.67445 23.7317 7.26018 22.6174 6.06538C21.503 4.87058 20.1515 3.92157 18.6493 3.27906C17.1471 2.63656 15.5274 2.31472 13.8937 2.33414C12.26 2.35356 10.6483 2.71381 9.16186 3.39183C7.67538 4.06986 6.34681 5.05073 5.26117 6.27168C4.17553 7.49263 3.35672 8.92677 2.85714 10.4823C2.35756 12.0379 2.18822 13.6806 2.35994 15.3054C2.53167 16.9301 3.04068 18.5011 3.8544 19.9179C3.99617 20.1623 4.20475 20.3612 4.45563 20.4911C4.7065 20.6211 4.98926 20.6768 5.27068 20.6516C5.58506 20.6239 5.97649 20.5848 6.44187 20.5302C6.64442 20.5072 6.83141 20.4104 6.96724 20.2584C7.10308 20.1064 7.17826 19.9098 7.17847 19.7059V13.4806" fill="#F9E17F"/>
<path d="M7.14209 23.5395C8.89389 24.8139 10.9641 25.5789 13.1237 25.7497C15.2832 25.9206 17.448 25.4907 19.3784 24.5077C21.3088 23.5246 22.9296 22.0267 24.0616 20.1796C25.1935 18.3325 25.7924 16.2083 25.792 14.042C25.792 13.771 25.7794 13.5042 25.7614 13.2382C21.4709 19.6372 13.549 22.6287 7.14209 23.5395Z" fill="#F9E17F"/>
</svg>
