<svg width="708" height="271" viewBox="0 0 708 271" fill="none" xmlns="http://www.w3.org/2000/svg">
<rect x="39" y="205" width="669" height="1" fill="#2D1F0A"/>
<rect x="39" y="206" width="206" height="1.00001" transform="rotate(-90 39 206)" fill="#2D1F0A"/>
<rect x="60" y="180" width="44" height="7" fill="#885539"/>
<rect x="60" y="187" width="44" height="18" fill="#331606"/>
<rect x="124" y="175" width="44" height="12" fill="#885539"/>
<rect x="124" y="187" width="44" height="18" fill="#331606"/>
<rect x="188" y="170" width="44" height="17" fill="#885539"/>
<rect x="188" y="187" width="44" height="18" fill="#331606"/>
<rect x="252" y="165" width="44" height="22" fill="#885539"/>
<rect x="252" y="187" width="44" height="18" fill="#331606"/>
<rect x="316" y="156" width="44" height="31" fill="#885539"/>
<rect x="316" y="187" width="44" height="18" fill="#331606"/>
<rect x="380" y="145" width="44" height="42" fill="#885539"/>
<rect x="380" y="187" width="44" height="18" fill="#331606"/>
<rect x="444" y="127" width="44" height="60" fill="#885539"/>
<rect x="444" y="187" width="44" height="18" fill="#331606"/>
<rect x="508" y="109" width="44" height="78" fill="#885539"/>
<rect x="508" y="187" width="44" height="18" fill="#331606"/>
<rect x="572" y="91" width="44" height="96" fill="#885539"/>
<rect x="572" y="187" width="44" height="18" fill="#331606"/>
<rect x="636" y="61" width="44" height="126" fill="#885539"/>
<rect x="636" y="187" width="44" height="18" fill="#331606"/>
<rect x="82" y="206" width="1" height="3" fill="#807159"/>
<rect x="146" y="206" width="1" height="3" fill="#807159"/>
<rect x="210" y="206" width="1" height="3" fill="#807159"/>
<rect x="274" y="206" width="1" height="3" fill="#807159"/>
<rect x="338" y="206" width="1" height="3" fill="#807159"/>
<rect x="402" y="206" width="1" height="3" fill="#807159"/>
<rect x="466" y="206" width="1" height="3" fill="#807159"/>
<rect x="530" y="206" width="1" height="3" fill="#807159"/>
<rect x="594" y="206" width="1" height="3" fill="#807159"/>
<rect x="658" y="206" width="1" height="3" fill="#807159"/>
<path d="M80.6614 212.104H82.7254V220H81.5614V213.22H80.6614V212.104Z" fill="#807159"/>
<path d="M143.366 220C143.878 219.504 144.366 219.016 144.83 218.536C145.294 218.056 145.71 217.592 146.078 217.144C146.454 216.696 146.75 216.264 146.966 215.848C147.182 215.424 147.29 215.016 147.29 214.624C147.29 214.36 147.246 214.136 147.158 213.952C147.07 213.76 146.954 213.604 146.81 213.484C146.674 213.364 146.518 213.276 146.342 213.22C146.166 213.156 145.986 213.124 145.802 213.124C145.538 213.124 145.314 213.168 145.13 213.256C144.946 213.336 144.794 213.444 144.674 213.58C144.562 213.716 144.478 213.86 144.422 214.012C144.374 214.164 144.35 214.316 144.35 214.468C144.35 214.732 144.39 214.972 144.47 215.188C144.55 215.396 144.666 215.58 144.818 215.74L144.098 216.376C143.914 216.256 143.754 216.088 143.618 215.872C143.49 215.656 143.39 215.424 143.318 215.176C143.254 214.92 143.222 214.692 143.222 214.492C143.222 214.06 143.326 213.656 143.534 213.28C143.75 212.896 144.062 212.588 144.47 212.356C144.886 212.124 145.39 212.008 145.982 212.008C146.486 212.008 146.926 212.124 147.302 212.356C147.678 212.588 147.97 212.896 148.178 213.28C148.386 213.656 148.49 214.072 148.49 214.528C148.49 214.928 148.41 215.32 148.25 215.704C148.09 216.088 147.874 216.468 147.602 216.844C147.338 217.22 147.042 217.592 146.714 217.96C146.394 218.32 146.074 218.684 145.754 219.052L145.25 218.884H148.754V220H143.366Z" fill="#807159"/>
<path d="M212.103 212.104L209.991 215.5L209.295 215.176C209.399 215.12 209.515 215.08 209.643 215.056C209.771 215.032 209.899 215.02 210.027 215.02C210.323 215.004 210.611 215.036 210.891 215.116C211.171 215.196 211.423 215.328 211.647 215.512C211.871 215.696 212.047 215.94 212.175 216.244C212.311 216.548 212.379 216.924 212.379 217.372C212.379 217.932 212.251 218.416 211.995 218.824C211.739 219.232 211.399 219.548 210.975 219.772C210.559 219.988 210.095 220.096 209.583 220.096C209.199 220.096 208.815 220.02 208.431 219.868C208.055 219.708 207.743 219.5 207.495 219.244L208.083 218.284C208.235 218.46 208.443 218.62 208.707 218.764C208.979 218.908 209.259 218.98 209.547 218.98C209.851 218.98 210.123 218.912 210.363 218.776C210.611 218.64 210.807 218.448 210.951 218.2C211.103 217.944 211.179 217.648 211.179 217.312C211.179 216.848 211.043 216.484 210.771 216.22C210.507 215.956 210.143 215.824 209.679 215.824C209.447 215.824 209.251 215.844 209.091 215.884C208.931 215.916 208.787 215.956 208.659 216.004L208.623 215.956L210.483 213.064L210.843 213.22H207.951V212.104H212.103Z" fill="#807159"/>
<path d="M270.945 218.092V218.08L275.757 212.008H275.769V217.204H276.789V218.092H275.769V220H274.605V218.092H270.945ZM274.677 214.636L272.649 217.264L272.469 217.204H274.605V214.42L274.677 214.636Z" fill="#807159"/>
<path d="M337.799 220.096C337.375 220.096 336.967 220.02 336.575 219.868C336.191 219.716 335.879 219.52 335.639 219.28L336.263 218.38C336.423 218.564 336.635 218.712 336.899 218.824C337.171 218.936 337.439 218.992 337.703 218.992C337.999 218.992 338.259 218.928 338.483 218.8C338.715 218.664 338.895 218.484 339.023 218.26C339.151 218.028 339.215 217.764 339.215 217.468C339.215 217.148 339.155 216.864 339.035 216.616C338.923 216.368 338.751 216.176 338.519 216.04C338.295 215.896 338.011 215.824 337.667 215.824C337.387 215.824 337.127 215.864 336.887 215.944C336.647 216.016 336.399 216.128 336.143 216.28H336.131V212.104H339.911V213.22H337.139V215.236L336.983 214.996C337.119 214.948 337.271 214.912 337.439 214.888C337.615 214.856 337.783 214.84 337.943 214.84C338.479 214.84 338.927 214.96 339.287 215.2C339.655 215.432 339.931 215.744 340.115 216.136C340.307 216.528 340.403 216.96 340.403 217.432C340.403 217.928 340.291 218.38 340.067 218.788C339.843 219.188 339.535 219.508 339.143 219.748C338.751 219.98 338.303 220.096 337.799 220.096Z" fill="#807159"/>
<path d="M402.018 220.096C401.49 220.096 401.01 219.972 400.578 219.724C400.154 219.468 399.814 219.108 399.558 218.644C399.31 218.172 399.186 217.616 399.186 216.976C399.186 216.456 399.286 215.964 399.486 215.5C399.694 215.028 399.97 214.588 400.314 214.18C400.658 213.764 401.046 213.38 401.478 213.028C401.918 212.668 402.366 212.34 402.822 212.044L403.59 212.884C402.942 213.204 402.398 213.568 401.958 213.976C401.518 214.376 401.178 214.784 400.938 215.2C400.698 215.616 400.554 216.008 400.506 216.376L400.218 216.34C400.434 215.892 400.718 215.548 401.07 215.308C401.422 215.068 401.866 214.948 402.402 214.948C402.81 214.948 403.194 215.056 403.554 215.272C403.914 215.488 404.206 215.784 404.43 216.16C404.662 216.536 404.778 216.968 404.778 217.456C404.778 217.992 404.646 218.46 404.382 218.86C404.126 219.252 403.786 219.556 403.362 219.772C402.946 219.988 402.498 220.096 402.018 220.096ZM401.97 219.052C402.266 219.052 402.534 218.988 402.774 218.86C403.022 218.724 403.218 218.536 403.362 218.296C403.506 218.056 403.578 217.78 403.578 217.468C403.578 217.156 403.506 216.884 403.362 216.652C403.218 216.42 403.022 216.24 402.774 216.112C402.534 215.984 402.266 215.92 401.97 215.92C401.674 215.92 401.406 215.984 401.166 216.112C400.926 216.232 400.734 216.4 400.59 216.616C400.446 216.824 400.374 217.056 400.374 217.312V217.516C400.374 217.788 400.442 218.044 400.578 218.284C400.722 218.516 400.914 218.704 401.154 218.848C401.402 218.984 401.674 219.052 401.97 219.052Z" fill="#807159"/>
<path d="M468.596 212.104L465.44 220H464.132L466.976 213.052L467.384 213.22H463.436V212.104H468.596Z" fill="#807159"/>
<path d="M527.195 217.516C527.195 217.108 527.271 216.756 527.423 216.46C527.583 216.164 527.779 215.916 528.011 215.716C528.251 215.508 528.495 215.352 528.743 215.248C528.503 215.096 528.303 214.908 528.143 214.684C527.991 214.46 527.915 214.172 527.915 213.82C527.915 213.468 528.003 213.156 528.179 212.884C528.363 212.612 528.611 212.4 528.923 212.248C529.235 212.088 529.591 212.008 529.991 212.008C530.383 212.008 530.735 212.088 531.047 212.248C531.359 212.4 531.607 212.608 531.791 212.872C531.975 213.136 532.067 213.436 532.067 213.772C532.067 214.148 531.987 214.448 531.827 214.672C531.675 214.896 531.479 215.088 531.239 215.248C531.487 215.36 531.731 215.52 531.971 215.728C532.211 215.928 532.407 216.176 532.559 216.472C532.719 216.768 532.799 217.116 532.799 217.516C532.799 217.972 532.671 218.396 532.415 218.788C532.167 219.18 531.831 219.496 531.407 219.736C530.991 219.976 530.515 220.096 529.979 220.096C529.443 220.096 528.967 219.976 528.551 219.736C528.135 219.496 527.803 219.18 527.555 218.788C527.315 218.396 527.195 217.972 527.195 217.516ZM528.383 217.456C528.383 217.76 528.455 218.036 528.599 218.284C528.743 218.532 528.935 218.732 529.175 218.884C529.415 219.036 529.683 219.112 529.979 219.112C530.283 219.112 530.559 219.036 530.807 218.884C531.063 218.732 531.263 218.532 531.407 218.284C531.559 218.036 531.635 217.764 531.635 217.468C531.635 217.164 531.563 216.892 531.419 216.652C531.275 216.404 531.079 216.204 530.831 216.052C530.591 215.9 530.323 215.824 530.027 215.824C529.731 215.816 529.459 215.888 529.211 216.04C528.963 216.184 528.763 216.38 528.611 216.628C528.459 216.876 528.383 217.152 528.383 217.456ZM529.043 213.964C529.043 214.212 529.139 214.424 529.331 214.6C529.531 214.768 529.759 214.852 530.015 214.852C530.271 214.852 530.491 214.768 530.675 214.6C530.867 214.424 530.963 214.212 530.963 213.964C530.963 213.676 530.867 213.44 530.675 213.256C530.491 213.072 530.271 212.98 530.015 212.98C529.751 212.98 529.523 213.072 529.331 213.256C529.139 213.44 529.043 213.676 529.043 213.964Z" fill="#807159"/>
<path d="M593.609 217.408C593.201 217.408 592.817 217.3 592.457 217.084C592.097 216.868 591.801 216.572 591.569 216.196C591.345 215.812 591.233 215.38 591.233 214.9C591.233 214.34 591.361 213.856 591.617 213.448C591.881 213.032 592.221 212.712 592.637 212.488C593.053 212.264 593.501 212.152 593.981 212.152C594.517 212.152 594.997 212.268 595.421 212.5C595.853 212.732 596.193 213.056 596.441 213.472C596.697 213.888 596.825 214.368 596.825 214.912C596.825 215.536 596.705 216.104 596.465 216.616C596.233 217.128 595.925 217.596 595.541 218.02C595.157 218.436 594.733 218.82 594.269 219.172C593.805 219.516 593.341 219.844 592.877 220.156L592.109 219.304C592.773 218.96 593.349 218.6 593.837 218.224C594.325 217.848 594.709 217.472 594.989 217.096C595.269 216.712 595.433 216.352 595.481 216.016L595.817 216.028C595.577 216.476 595.289 216.82 594.953 217.06C594.625 217.292 594.177 217.408 593.609 217.408ZM594.029 216.424C594.501 216.424 594.885 216.288 595.181 216.016C595.485 215.744 595.637 215.392 595.637 214.96V214.744C595.629 214.448 595.553 214.184 595.409 213.952C595.265 213.72 595.073 213.536 594.833 213.4C594.593 213.264 594.325 213.196 594.029 213.196C593.733 213.196 593.461 213.264 593.213 213.4C592.973 213.536 592.781 213.728 592.637 213.976C592.501 214.216 592.433 214.5 592.433 214.828C592.433 215.148 592.505 215.432 592.649 215.68C592.793 215.92 592.985 216.104 593.225 216.232C593.465 216.36 593.733 216.424 594.029 216.424Z" fill="#807159"/>
<path d="M652.923 212.104H654.987V220H653.823V213.22H652.923V212.104ZM659.98 220.036C659.492 220.036 659.044 219.944 658.636 219.76C658.228 219.576 657.876 219.312 657.58 218.968C657.292 218.616 657.068 218.192 656.908 217.696C656.748 217.2 656.668 216.644 656.668 216.028C656.668 215.356 656.744 214.772 656.896 214.276C657.048 213.772 657.268 213.352 657.556 213.016C657.852 212.68 658.204 212.432 658.612 212.272C659.02 212.104 659.476 212.02 659.98 212.02C660.468 212.02 660.912 212.112 661.312 212.296C661.72 212.48 662.068 212.748 662.356 213.1C662.652 213.444 662.88 213.864 663.04 214.36C663.208 214.848 663.292 215.404 663.292 216.028C663.292 216.66 663.208 217.224 663.04 217.72C662.88 218.216 662.652 218.636 662.356 218.98C662.068 219.324 661.72 219.588 661.312 219.772C660.912 219.948 660.468 220.036 659.98 220.036ZM659.968 218.92C660.432 218.92 660.82 218.8 661.132 218.56C661.452 218.312 661.692 217.968 661.852 217.528C662.012 217.088 662.092 216.58 662.092 216.004C662.092 215.428 662.012 214.928 661.852 214.504C661.692 214.072 661.452 213.736 661.132 213.496C660.82 213.256 660.432 213.136 659.968 213.136C659.504 213.136 659.116 213.26 658.804 213.508C658.492 213.748 658.256 214.084 658.096 214.516C657.944 214.948 657.868 215.452 657.868 216.028C657.868 216.596 657.944 217.1 658.096 217.54C658.256 217.972 658.492 218.312 658.804 218.56C659.116 218.8 659.504 218.92 659.968 218.92Z" fill="#807159"/>
<rect x="39" y="43" width="1" height="3" transform="rotate(90 39 43)" fill="#807159"/>
<path d="M7.39577 33.104H9.45977V41H8.29577V34.22H7.39577V33.104ZM11.117 40.364C11.117 40.188 11.181 40.04 11.309 39.92C11.445 39.792 11.593 39.728 11.753 39.728C11.897 39.728 12.033 39.792 12.161 39.92C12.297 40.04 12.365 40.188 12.365 40.364C12.365 40.556 12.297 40.712 12.161 40.832C12.033 40.944 11.897 41 11.753 41C11.593 41 11.445 40.944 11.309 40.832C11.181 40.712 11.117 40.556 11.117 40.364ZM13.3606 41C13.8726 40.504 14.3606 40.016 14.8246 39.536C15.2886 39.056 15.7046 38.592 16.0726 38.144C16.4486 37.696 16.7446 37.264 16.9606 36.848C17.1766 36.424 17.2846 36.016 17.2846 35.624C17.2846 35.36 17.2406 35.136 17.1526 34.952C17.0646 34.76 16.9486 34.604 16.8046 34.484C16.6686 34.364 16.5126 34.276 16.3366 34.22C16.1606 34.156 15.9806 34.124 15.7966 34.124C15.5326 34.124 15.3086 34.168 15.1246 34.256C14.9406 34.336 14.7886 34.444 14.6686 34.58C14.5566 34.716 14.4726 34.86 14.4166 35.012C14.3686 35.164 14.3446 35.316 14.3446 35.468C14.3446 35.732 14.3846 35.972 14.4646 36.188C14.5446 36.396 14.6606 36.58 14.8126 36.74L14.0926 37.376C13.9086 37.256 13.7486 37.088 13.6126 36.872C13.4846 36.656 13.3846 36.424 13.3126 36.176C13.2486 35.92 13.2166 35.692 13.2166 35.492C13.2166 35.06 13.3206 34.656 13.5286 34.28C13.7446 33.896 14.0566 33.588 14.4646 33.356C14.8806 33.124 15.3846 33.008 15.9766 33.008C16.4806 33.008 16.9206 33.124 17.2966 33.356C17.6726 33.588 17.9646 33.896 18.1726 34.28C18.3806 34.656 18.4846 35.072 18.4846 35.528C18.4846 35.928 18.4046 36.32 18.2446 36.704C18.0846 37.088 17.8686 37.468 17.5966 37.844C17.3326 38.22 17.0366 38.592 16.7086 38.96C16.3886 39.32 16.0686 39.684 15.7486 40.052L15.2446 39.884H18.7486V41H13.3606ZM20.2357 41V31.712H21.3517V41H20.2357ZM22.5517 37.7L24.8317 41H23.5237L21.8077 38.324L22.5517 37.7ZM21.0037 39.416L20.8957 38.348L23.9077 35.924L24.5917 36.512L21.0037 39.416Z" fill="#807159"/>
<rect x="39" y="85" width="1" height="3" transform="rotate(90 39 85)" fill="#807159"/>
<path d="M8.13278 80.408C7.72478 80.408 7.34078 80.3 6.98078 80.084C6.62078 79.868 6.32478 79.572 6.09278 79.196C5.86878 78.812 5.75678 78.38 5.75678 77.9C5.75678 77.34 5.88478 76.856 6.14078 76.448C6.40478 76.032 6.74478 75.712 7.16078 75.488C7.57678 75.264 8.02478 75.152 8.50478 75.152C9.04078 75.152 9.52078 75.268 9.94478 75.5C10.3768 75.732 10.7168 76.056 10.9648 76.472C11.2208 76.888 11.3488 77.368 11.3488 77.912C11.3488 78.536 11.2288 79.104 10.9888 79.616C10.7568 80.128 10.4488 80.596 10.0648 81.02C9.68078 81.436 9.25678 81.82 8.79278 82.172C8.32878 82.516 7.86478 82.844 7.40078 83.156L6.63278 82.304C7.29678 81.96 7.87278 81.6 8.36078 81.224C8.84878 80.848 9.23278 80.472 9.51278 80.096C9.79278 79.712 9.95678 79.352 10.0048 79.016L10.3408 79.028C10.1008 79.476 9.81278 79.82 9.47678 80.06C9.14878 80.292 8.70078 80.408 8.13278 80.408ZM8.55278 79.424C9.02478 79.424 9.40878 79.288 9.70478 79.016C10.0088 78.744 10.1608 78.392 10.1608 77.96V77.744C10.1528 77.448 10.0768 77.184 9.93278 76.952C9.78878 76.72 9.59678 76.536 9.35678 76.4C9.11678 76.264 8.84878 76.196 8.55278 76.196C8.25678 76.196 7.98478 76.264 7.73678 76.4C7.49678 76.536 7.30478 76.728 7.16078 76.976C7.02478 77.216 6.95678 77.5 6.95678 77.828C6.95678 78.148 7.02878 78.432 7.17278 78.68C7.31678 78.92 7.50878 79.104 7.74878 79.232C7.98878 79.36 8.25678 79.424 8.55278 79.424ZM15.4901 83.036C15.0021 83.036 14.5541 82.944 14.1461 82.76C13.7381 82.576 13.3861 82.312 13.0901 81.968C12.8021 81.616 12.5781 81.192 12.4181 80.696C12.2581 80.2 12.1781 79.644 12.1781 79.028C12.1781 78.356 12.2541 77.772 12.4061 77.276C12.5581 76.772 12.7781 76.352 13.0661 76.016C13.3621 75.68 13.7141 75.432 14.1221 75.272C14.5301 75.104 14.9861 75.02 15.4901 75.02C15.9781 75.02 16.4221 75.112 16.8221 75.296C17.2301 75.48 17.5781 75.748 17.8661 76.1C18.1621 76.444 18.3901 76.864 18.5501 77.36C18.7181 77.848 18.8021 78.404 18.8021 79.028C18.8021 79.66 18.7181 80.224 18.5501 80.72C18.3901 81.216 18.1621 81.636 17.8661 81.98C17.5781 82.324 17.2301 82.588 16.8221 82.772C16.4221 82.948 15.9781 83.036 15.4901 83.036ZM15.4781 81.92C15.9421 81.92 16.3301 81.8 16.6421 81.56C16.9621 81.312 17.2021 80.968 17.3621 80.528C17.5221 80.088 17.6021 79.58 17.6021 79.004C17.6021 78.428 17.5221 77.928 17.3621 77.504C17.2021 77.072 16.9621 76.736 16.6421 76.496C16.3301 76.256 15.9421 76.136 15.4781 76.136C15.0141 76.136 14.6261 76.26 14.3141 76.508C14.0021 76.748 13.7661 77.084 13.6061 77.516C13.4541 77.948 13.3781 78.452 13.3781 79.028C13.3781 79.596 13.4541 80.1 13.6061 80.54C13.7661 80.972 14.0021 81.312 14.3141 81.56C14.6261 81.8 15.0141 81.92 15.4781 81.92ZM22.9667 83.036C22.4787 83.036 22.0307 82.944 21.6227 82.76C21.2147 82.576 20.8627 82.312 20.5667 81.968C20.2787 81.616 20.0547 81.192 19.8947 80.696C19.7347 80.2 19.6547 79.644 19.6547 79.028C19.6547 78.356 19.7307 77.772 19.8827 77.276C20.0347 76.772 20.2547 76.352 20.5427 76.016C20.8387 75.68 21.1907 75.432 21.5987 75.272C22.0067 75.104 22.4627 75.02 22.9667 75.02C23.4547 75.02 23.8987 75.112 24.2987 75.296C24.7067 75.48 25.0547 75.748 25.3427 76.1C25.6387 76.444 25.8667 76.864 26.0267 77.36C26.1947 77.848 26.2787 78.404 26.2787 79.028C26.2787 79.66 26.1947 80.224 26.0267 80.72C25.8667 81.216 25.6387 81.636 25.3427 81.98C25.0547 82.324 24.7067 82.588 24.2987 82.772C23.8987 82.948 23.4547 83.036 22.9667 83.036ZM22.9547 81.92C23.4187 81.92 23.8067 81.8 24.1187 81.56C24.4387 81.312 24.6787 80.968 24.8387 80.528C24.9987 80.088 25.0787 79.58 25.0787 79.004C25.0787 78.428 24.9987 77.928 24.8387 77.504C24.6787 77.072 24.4387 76.736 24.1187 76.496C23.8067 76.256 23.4187 76.136 22.9547 76.136C22.4907 76.136 22.1027 76.26 21.7907 76.508C21.4787 76.748 21.2427 77.084 21.0827 77.516C20.9307 77.948 20.8547 78.452 20.8547 79.028C20.8547 79.596 20.9307 80.1 21.0827 80.54C21.2427 80.972 21.4787 81.312 21.7907 81.56C22.1027 81.8 22.4907 81.92 22.9547 81.92Z" fill="#807159"/>
<rect x="39" y="127" width="1" height="3" transform="rotate(90 39 127)" fill="#807159"/>
<path d="M8.54191 125.096C8.01391 125.096 7.53391 124.972 7.10191 124.724C6.67791 124.468 6.33791 124.108 6.08191 123.644C5.83391 123.172 5.70991 122.616 5.70991 121.976C5.70991 121.456 5.80991 120.964 6.00991 120.5C6.21791 120.028 6.49391 119.588 6.83791 119.18C7.18191 118.764 7.56991 118.38 8.00191 118.028C8.44191 117.668 8.88991 117.34 9.34591 117.044L10.1139 117.884C9.46591 118.204 8.92191 118.568 8.48191 118.976C8.04191 119.376 7.70191 119.784 7.46191 120.2C7.22191 120.616 7.07791 121.008 7.02991 121.376L6.74191 121.34C6.95791 120.892 7.24191 120.548 7.59391 120.308C7.94591 120.068 8.38991 119.948 8.92591 119.948C9.33391 119.948 9.71791 120.056 10.0779 120.272C10.4379 120.488 10.7299 120.784 10.9539 121.16C11.1859 121.536 11.3019 121.968 11.3019 122.456C11.3019 122.992 11.1699 123.46 10.9059 123.86C10.6499 124.252 10.3099 124.556 9.88591 124.772C9.46991 124.988 9.02191 125.096 8.54191 125.096ZM8.49391 124.052C8.78991 124.052 9.05791 123.988 9.29791 123.86C9.54591 123.724 9.74191 123.536 9.88591 123.296C10.0299 123.056 10.1019 122.78 10.1019 122.468C10.1019 122.156 10.0299 121.884 9.88591 121.652C9.74191 121.42 9.54591 121.24 9.29791 121.112C9.05791 120.984 8.78991 120.92 8.49391 120.92C8.19791 120.92 7.92991 120.984 7.68991 121.112C7.44991 121.232 7.25791 121.4 7.11391 121.616C6.96991 121.824 6.89791 122.056 6.89791 122.312V122.516C6.89791 122.788 6.96591 123.044 7.10191 123.284C7.24591 123.516 7.43791 123.704 7.67791 123.848C7.92591 123.984 8.19791 124.052 8.49391 124.052ZM15.537 125.036C15.049 125.036 14.601 124.944 14.193 124.76C13.785 124.576 13.433 124.312 13.137 123.968C12.849 123.616 12.625 123.192 12.465 122.696C12.305 122.2 12.225 121.644 12.225 121.028C12.225 120.356 12.301 119.772 12.453 119.276C12.605 118.772 12.825 118.352 13.113 118.016C13.409 117.68 13.761 117.432 14.169 117.272C14.577 117.104 15.033 117.02 15.537 117.02C16.025 117.02 16.469 117.112 16.869 117.296C17.277 117.48 17.625 117.748 17.913 118.1C18.209 118.444 18.437 118.864 18.597 119.36C18.765 119.848 18.849 120.404 18.849 121.028C18.849 121.66 18.765 122.224 18.597 122.72C18.437 123.216 18.209 123.636 17.913 123.98C17.625 124.324 17.277 124.588 16.869 124.772C16.469 124.948 16.025 125.036 15.537 125.036ZM15.525 123.92C15.989 123.92 16.377 123.8 16.689 123.56C17.009 123.312 17.249 122.968 17.409 122.528C17.569 122.088 17.649 121.58 17.649 121.004C17.649 120.428 17.569 119.928 17.409 119.504C17.249 119.072 17.009 118.736 16.689 118.496C16.377 118.256 15.989 118.136 15.525 118.136C15.061 118.136 14.673 118.26 14.361 118.508C14.049 118.748 13.813 119.084 13.653 119.516C13.501 119.948 13.425 120.452 13.425 121.028C13.425 121.596 13.501 122.1 13.653 122.54C13.813 122.972 14.049 123.312 14.361 123.56C14.673 123.8 15.061 123.92 15.525 123.92ZM23.0135 125.036C22.5255 125.036 22.0775 124.944 21.6695 124.76C21.2615 124.576 20.9095 124.312 20.6135 123.968C20.3255 123.616 20.1015 123.192 19.9415 122.696C19.7815 122.2 19.7015 121.644 19.7015 121.028C19.7015 120.356 19.7775 119.772 19.9295 119.276C20.0815 118.772 20.3015 118.352 20.5895 118.016C20.8855 117.68 21.2375 117.432 21.6455 117.272C22.0535 117.104 22.5095 117.02 23.0135 117.02C23.5015 117.02 23.9455 117.112 24.3455 117.296C24.7535 117.48 25.1015 117.748 25.3895 118.1C25.6855 118.444 25.9135 118.864 26.0735 119.36C26.2415 119.848 26.3255 120.404 26.3255 121.028C26.3255 121.66 26.2415 122.224 26.0735 122.72C25.9135 123.216 25.6855 123.636 25.3895 123.98C25.1015 124.324 24.7535 124.588 24.3455 124.772C23.9455 124.948 23.5015 125.036 23.0135 125.036ZM23.0015 123.92C23.4655 123.92 23.8535 123.8 24.1655 123.56C24.4855 123.312 24.7255 122.968 24.8855 122.528C25.0455 122.088 25.1255 121.58 25.1255 121.004C25.1255 120.428 25.0455 119.928 24.8855 119.504C24.7255 119.072 24.4855 118.736 24.1655 118.496C23.8535 118.256 23.4655 118.136 23.0015 118.136C22.5375 118.136 22.1495 118.26 21.8375 118.508C21.5255 118.748 21.2895 119.084 21.1295 119.516C20.9775 119.948 20.9015 120.452 20.9015 121.028C20.9015 121.596 20.9775 122.1 21.1295 122.54C21.2895 122.972 21.5255 123.312 21.8375 123.56C22.1495 123.8 22.5375 123.92 23.0015 123.92Z" fill="#807159"/>
<rect x="39" y="169" width="1" height="3" transform="rotate(90 39 169)" fill="#807159"/>
<path d="M10.6268 159.104L8.51481 162.5L7.81881 162.176C7.92281 162.12 8.03881 162.08 8.16681 162.056C8.29481 162.032 8.42281 162.02 8.55081 162.02C8.84681 162.004 9.13481 162.036 9.41481 162.116C9.69481 162.196 9.94681 162.328 10.1708 162.512C10.3948 162.696 10.5708 162.94 10.6988 163.244C10.8348 163.548 10.9028 163.924 10.9028 164.372C10.9028 164.932 10.7748 165.416 10.5188 165.824C10.2628 166.232 9.92281 166.548 9.49881 166.772C9.08281 166.988 8.61881 167.096 8.10681 167.096C7.72281 167.096 7.33881 167.02 6.95481 166.868C6.57881 166.708 6.26681 166.5 6.01881 166.244L6.60681 165.284C6.75881 165.46 6.96681 165.62 7.23081 165.764C7.50281 165.908 7.78281 165.98 8.07081 165.98C8.37481 165.98 8.64681 165.912 8.88681 165.776C9.13481 165.64 9.33081 165.448 9.47481 165.2C9.62681 164.944 9.70281 164.648 9.70281 164.312C9.70281 163.848 9.56681 163.484 9.29481 163.22C9.03081 162.956 8.66681 162.824 8.20281 162.824C7.97081 162.824 7.77481 162.844 7.61481 162.884C7.45481 162.916 7.31081 162.956 7.18281 163.004L7.14681 162.956L9.00681 160.064L9.36681 160.22H6.47481V159.104H10.6268ZM15.4081 167.036C14.9201 167.036 14.4721 166.944 14.0641 166.76C13.6561 166.576 13.3041 166.312 13.0081 165.968C12.7201 165.616 12.4961 165.192 12.3361 164.696C12.1761 164.2 12.0961 163.644 12.0961 163.028C12.0961 162.356 12.1721 161.772 12.3241 161.276C12.4761 160.772 12.6961 160.352 12.9841 160.016C13.2801 159.68 13.6321 159.432 14.0401 159.272C14.4481 159.104 14.9041 159.02 15.4081 159.02C15.8961 159.02 16.3401 159.112 16.7401 159.296C17.1481 159.48 17.4961 159.748 17.7841 160.1C18.0801 160.444 18.3081 160.864 18.4681 161.36C18.6361 161.848 18.7201 162.404 18.7201 163.028C18.7201 163.66 18.6361 164.224 18.4681 164.72C18.3081 165.216 18.0801 165.636 17.7841 165.98C17.4961 166.324 17.1481 166.588 16.7401 166.772C16.3401 166.948 15.8961 167.036 15.4081 167.036ZM15.3961 165.92C15.8601 165.92 16.2481 165.8 16.5601 165.56C16.8801 165.312 17.1201 164.968 17.2801 164.528C17.4401 164.088 17.5201 163.58 17.5201 163.004C17.5201 162.428 17.4401 161.928 17.2801 161.504C17.1201 161.072 16.8801 160.736 16.5601 160.496C16.2481 160.256 15.8601 160.136 15.3961 160.136C14.9321 160.136 14.5441 160.26 14.2321 160.508C13.9201 160.748 13.6841 161.084 13.5241 161.516C13.3721 161.948 13.2961 162.452 13.2961 163.028C13.2961 163.596 13.3721 164.1 13.5241 164.54C13.6841 164.972 13.9201 165.312 14.2321 165.56C14.5441 165.8 14.9321 165.92 15.3961 165.92ZM22.8846 167.036C22.3966 167.036 21.9486 166.944 21.5406 166.76C21.1326 166.576 20.7806 166.312 20.4846 165.968C20.1966 165.616 19.9726 165.192 19.8126 164.696C19.6526 164.2 19.5726 163.644 19.5726 163.028C19.5726 162.356 19.6486 161.772 19.8006 161.276C19.9526 160.772 20.1726 160.352 20.4606 160.016C20.7566 159.68 21.1086 159.432 21.5166 159.272C21.9246 159.104 22.3806 159.02 22.8846 159.02C23.3726 159.02 23.8166 159.112 24.2166 159.296C24.6246 159.48 24.9726 159.748 25.2606 160.1C25.5566 160.444 25.7846 160.864 25.9446 161.36C26.1126 161.848 26.1966 162.404 26.1966 163.028C26.1966 163.66 26.1126 164.224 25.9446 164.72C25.7846 165.216 25.5566 165.636 25.2606 165.98C24.9726 166.324 24.6246 166.588 24.2166 166.772C23.8166 166.948 23.3726 167.036 22.8846 167.036ZM22.8726 165.92C23.3366 165.92 23.7246 165.8 24.0366 165.56C24.3566 165.312 24.5966 164.968 24.7566 164.528C24.9166 164.088 24.9966 163.58 24.9966 163.004C24.9966 162.428 24.9166 161.928 24.7566 161.504C24.5966 161.072 24.3566 160.736 24.0366 160.496C23.7246 160.256 23.3366 160.136 22.8726 160.136C22.4086 160.136 22.0206 160.26 21.7086 160.508C21.3966 160.748 21.1606 161.084 21.0006 161.516C20.8486 161.948 20.7726 162.452 20.7726 163.028C20.7726 163.596 20.8486 164.1 21.0006 164.54C21.1606 164.972 21.3966 165.312 21.7086 165.56C22.0206 165.8 22.4086 165.92 22.8726 165.92Z" fill="#807159"/>
<rect x="39" y="205" width="1" height="3" transform="rotate(90 39 205)" fill="#807159"/>
<path d="M16.0057 209.036C15.5177 209.036 15.0697 208.944 14.6617 208.76C14.2537 208.576 13.9017 208.312 13.6057 207.968C13.3177 207.616 13.0937 207.192 12.9337 206.696C12.7737 206.2 12.6937 205.644 12.6937 205.028C12.6937 204.356 12.7697 203.772 12.9217 203.276C13.0737 202.772 13.2937 202.352 13.5817 202.016C13.8777 201.68 14.2297 201.432 14.6377 201.272C15.0457 201.104 15.5017 201.02 16.0057 201.02C16.4937 201.02 16.9377 201.112 17.3377 201.296C17.7457 201.48 18.0937 201.748 18.3817 202.1C18.6777 202.444 18.9057 202.864 19.0657 203.36C19.2337 203.848 19.3177 204.404 19.3177 205.028C19.3177 205.66 19.2337 206.224 19.0657 206.72C18.9057 207.216 18.6777 207.636 18.3817 207.98C18.0937 208.324 17.7457 208.588 17.3377 208.772C16.9377 208.948 16.4937 209.036 16.0057 209.036ZM15.9937 207.92C16.4577 207.92 16.8457 207.8 17.1577 207.56C17.4777 207.312 17.7177 206.968 17.8777 206.528C18.0377 206.088 18.1177 205.58 18.1177 205.004C18.1177 204.428 18.0377 203.928 17.8777 203.504C17.7177 203.072 17.4777 202.736 17.1577 202.496C16.8457 202.256 16.4577 202.136 15.9937 202.136C15.5297 202.136 15.1417 202.26 14.8297 202.508C14.5177 202.748 14.2817 203.084 14.1217 203.516C13.9697 203.948 13.8937 204.452 13.8937 205.028C13.8937 205.596 13.9697 206.1 14.1217 206.54C14.2817 206.972 14.5177 207.312 14.8297 207.56C15.1417 207.8 15.5297 207.92 15.9937 207.92Z" fill="#807159"/>
<rect x="252.5" y="253" width="18" height="18" fill="#331606"/>
<path d="M277.136 261.928H279.38V262.912H277.136V261.928ZM285.189 256.324H286.353V265H285.189V256.324ZM289.566 260.032L289.662 261.244L289.614 261.052C289.774 260.684 290.034 260.392 290.394 260.176C290.754 259.952 291.17 259.84 291.642 259.84C292.114 259.84 292.498 259.98 292.794 260.26C293.098 260.532 293.254 260.888 293.262 261.328V265H292.134V261.724C292.126 261.452 292.046 261.232 291.894 261.064C291.75 260.888 291.522 260.8 291.21 260.8C290.922 260.8 290.662 260.88 290.43 261.04C290.198 261.2 290.014 261.42 289.878 261.7C289.75 261.98 289.686 262.304 289.686 262.672V265H288.57V260.032H289.566ZM295.202 260.032H296.318V265H295.202V260.032ZM295.118 258.232C295.118 258.056 295.186 257.908 295.322 257.788C295.466 257.668 295.622 257.608 295.79 257.608C295.958 257.608 296.106 257.668 296.234 257.788C296.37 257.908 296.438 258.056 296.438 258.232C296.438 258.416 296.37 258.568 296.234 258.688C296.106 258.8 295.958 258.856 295.79 258.856C295.622 258.856 295.466 258.796 295.322 258.676C295.186 258.556 295.118 258.408 295.118 258.232ZM298.729 257.848H299.845V260.056H301.213V260.932H299.845V265H298.729V260.932H297.817V260.056H298.729V257.848ZM302.562 260.032H303.678V265H302.562V260.032ZM302.478 258.232C302.478 258.056 302.546 257.908 302.682 257.788C302.826 257.668 302.982 257.608 303.15 257.608C303.318 257.608 303.466 257.668 303.594 257.788C303.73 257.908 303.798 258.056 303.798 258.232C303.798 258.416 303.73 258.568 303.594 258.688C303.466 258.8 303.318 258.856 303.15 258.856C302.982 258.856 302.826 258.796 302.682 258.676C302.546 258.556 302.478 258.408 302.478 258.232ZM307.673 265.12C307.209 265.12 306.785 265.02 306.401 264.82C306.025 264.62 305.725 264.328 305.501 263.944C305.285 263.552 305.177 263.076 305.177 262.516C305.177 261.964 305.293 261.488 305.525 261.088C305.757 260.68 306.065 260.368 306.449 260.152C306.841 259.936 307.269 259.828 307.733 259.828C308.197 259.828 308.589 259.936 308.909 260.152C309.229 260.36 309.473 260.608 309.641 260.896L309.569 261.088L309.677 260.032H310.709V265H309.593V263.704L309.713 263.992C309.681 264.072 309.609 264.176 309.497 264.304C309.393 264.424 309.249 264.548 309.065 264.676C308.889 264.804 308.685 264.912 308.453 265C308.221 265.08 307.961 265.12 307.673 265.12ZM307.973 264.196C308.253 264.196 308.505 264.144 308.729 264.04C308.953 263.936 309.137 263.792 309.281 263.608C309.433 263.416 309.537 263.188 309.593 262.924V261.952C309.529 261.712 309.417 261.504 309.257 261.328C309.097 261.144 308.905 261.004 308.681 260.908C308.457 260.804 308.209 260.752 307.937 260.752C307.641 260.752 307.369 260.824 307.121 260.968C306.873 261.112 306.673 261.312 306.521 261.568C306.377 261.824 306.305 262.124 306.305 262.468C306.305 262.788 306.381 263.08 306.533 263.344C306.685 263.608 306.889 263.816 307.145 263.968C307.401 264.12 307.677 264.196 307.973 264.196ZM312.64 255.712H313.756V265H312.64V255.712ZM321.5 265.12C321.044 265.12 320.628 265.012 320.252 264.796C319.884 264.572 319.592 264.26 319.376 263.86C319.16 263.452 319.052 262.984 319.052 262.456C319.052 261.904 319.164 261.432 319.388 261.04C319.62 260.648 319.932 260.348 320.324 260.14C320.716 259.932 321.156 259.828 321.644 259.828C322.036 259.828 322.408 259.912 322.76 260.08C323.12 260.248 323.4 260.48 323.6 260.776L323.552 261.172V255.712H324.656V265H323.54V263.764L323.66 264.076C323.428 264.38 323.128 264.632 322.76 264.832C322.392 265.024 321.972 265.12 321.5 265.12ZM321.848 264.172C322.144 264.172 322.408 264.12 322.64 264.016C322.872 263.904 323.064 263.752 323.216 263.56C323.368 263.368 323.476 263.14 323.54 262.876V261.94C323.476 261.7 323.36 261.492 323.192 261.316C323.032 261.132 322.836 260.988 322.604 260.884C322.38 260.772 322.128 260.716 321.848 260.716C321.544 260.716 321.264 260.792 321.008 260.944C320.76 261.088 320.56 261.288 320.408 261.544C320.256 261.8 320.18 262.096 320.18 262.432C320.18 262.76 320.256 263.056 320.408 263.32C320.56 263.576 320.764 263.784 321.02 263.944C321.276 264.096 321.552 264.172 321.848 264.172ZM328.901 265.12C328.333 265.12 327.845 265.008 327.437 264.784C327.029 264.552 326.713 264.24 326.489 263.848C326.273 263.448 326.165 262.992 326.165 262.48C326.165 261.992 326.289 261.548 326.537 261.148C326.785 260.748 327.117 260.428 327.533 260.188C327.949 259.948 328.413 259.828 328.925 259.828C329.581 259.828 330.125 260.02 330.557 260.404C330.989 260.788 331.281 261.316 331.433 261.988L327.341 263.428L327.077 262.768L330.437 261.544L330.197 261.7C330.101 261.436 329.941 261.208 329.717 261.016C329.493 260.816 329.201 260.716 328.841 260.716C328.537 260.716 328.265 260.792 328.025 260.944C327.785 261.088 327.597 261.288 327.461 261.544C327.325 261.8 327.257 262.092 327.257 262.42C327.257 262.764 327.329 263.068 327.473 263.332C327.617 263.588 327.813 263.792 328.061 263.944C328.317 264.088 328.605 264.16 328.925 264.16C329.141 264.16 329.349 264.12 329.549 264.04C329.757 263.96 329.949 263.856 330.125 263.728L330.641 264.556C330.393 264.724 330.113 264.86 329.801 264.964C329.497 265.068 329.197 265.12 328.901 265.12ZM335.759 265.12C335.383 265.12 335.019 265.032 334.667 264.856C334.323 264.68 334.055 264.444 333.863 264.148L333.935 263.8V267.388H332.831V259.96H333.791L333.947 261.232L333.827 260.884C334.067 260.58 334.371 260.328 334.739 260.128C335.107 259.928 335.519 259.828 335.975 259.828C336.439 259.828 336.855 259.94 337.223 260.164C337.599 260.388 337.895 260.7 338.111 261.1C338.327 261.5 338.435 261.968 338.435 262.504C338.435 263.04 338.319 263.504 338.087 263.896C337.855 264.288 337.535 264.592 337.127 264.808C336.727 265.016 336.271 265.12 335.759 265.12ZM335.543 264.232C335.863 264.232 336.155 264.16 336.419 264.016C336.691 263.864 336.907 263.66 337.067 263.404C337.227 263.14 337.307 262.844 337.307 262.516C337.307 262.18 337.231 261.884 337.079 261.628C336.927 261.364 336.723 261.156 336.467 261.004C336.219 260.852 335.939 260.776 335.627 260.776C335.339 260.776 335.079 260.832 334.847 260.944C334.615 261.056 334.423 261.212 334.271 261.412C334.119 261.604 334.011 261.828 333.947 262.084V262.912C333.987 263.168 334.083 263.396 334.235 263.596C334.387 263.796 334.575 263.952 334.799 264.064C335.031 264.176 335.279 264.232 335.543 264.232ZM339.513 262.468C339.513 261.972 339.629 261.524 339.861 261.124C340.101 260.724 340.429 260.408 340.845 260.176C341.261 259.944 341.733 259.828 342.261 259.828C342.805 259.828 343.281 259.944 343.689 260.176C344.097 260.408 344.413 260.724 344.637 261.124C344.861 261.524 344.973 261.972 344.973 262.468C344.973 262.964 344.861 263.416 344.637 263.824C344.413 264.224 344.093 264.54 343.677 264.772C343.269 265.004 342.793 265.12 342.249 265.12C341.721 265.12 341.249 265.012 340.833 264.796C340.425 264.572 340.101 264.264 339.861 263.872C339.629 263.472 339.513 263.004 339.513 262.468ZM340.629 262.48C340.629 262.8 340.701 263.092 340.845 263.356C340.989 263.612 341.181 263.816 341.421 263.968C341.669 264.12 341.941 264.196 342.237 264.196C342.549 264.196 342.825 264.12 343.065 263.968C343.313 263.816 343.505 263.612 343.641 263.356C343.777 263.092 343.845 262.8 343.845 262.48C343.845 262.16 343.777 261.872 343.641 261.616C343.505 261.352 343.313 261.144 343.065 260.992C342.825 260.832 342.549 260.752 342.237 260.752C341.933 260.752 341.657 260.832 341.409 260.992C341.169 261.152 340.977 261.364 340.833 261.628C340.697 261.884 340.629 262.168 340.629 262.48ZM347.876 265.096C347.524 265.096 347.18 265.036 346.844 264.916C346.516 264.788 346.244 264.6 346.028 264.352L346.496 263.704C346.704 263.904 346.916 264.056 347.132 264.16C347.356 264.256 347.576 264.304 347.792 264.304C347.952 264.304 348.1 264.284 348.236 264.244C348.372 264.204 348.48 264.14 348.56 264.052C348.648 263.956 348.692 263.828 348.692 263.668C348.692 263.492 348.632 263.352 348.512 263.248C348.4 263.144 348.252 263.06 348.068 262.996C347.892 262.932 347.704 262.872 347.504 262.816C347.096 262.68 346.784 262.492 346.568 262.252C346.352 262.012 346.244 261.72 346.244 261.376C346.244 261.112 346.308 260.868 346.436 260.644C346.572 260.412 346.768 260.224 347.024 260.08C347.288 259.936 347.612 259.864 347.996 259.864C348.34 259.864 348.648 259.908 348.92 259.996C349.192 260.076 349.448 260.212 349.688 260.404L349.244 261.1C349.1 260.948 348.928 260.836 348.728 260.764C348.528 260.692 348.348 260.652 348.188 260.644C348.052 260.636 347.92 260.656 347.792 260.704C347.672 260.752 347.572 260.82 347.492 260.908C347.412 260.996 347.372 261.1 347.372 261.22C347.372 261.388 347.428 261.524 347.54 261.628C347.652 261.732 347.796 261.816 347.972 261.88C348.156 261.936 348.336 261.996 348.512 262.06C348.76 262.132 348.98 262.228 349.172 262.348C349.364 262.468 349.516 262.616 349.628 262.792C349.748 262.968 349.808 263.188 349.808 263.452C349.808 263.748 349.736 264.024 349.592 264.28C349.456 264.528 349.244 264.728 348.956 264.88C348.676 265.024 348.316 265.096 347.876 265.096ZM351.37 260.032H352.486V265H351.37V260.032ZM351.286 258.232C351.286 258.056 351.354 257.908 351.49 257.788C351.634 257.668 351.79 257.608 351.958 257.608C352.126 257.608 352.274 257.668 352.402 257.788C352.538 257.908 352.606 258.056 352.606 258.232C352.606 258.416 352.538 258.568 352.402 258.688C352.274 258.8 352.126 258.856 351.958 258.856C351.79 258.856 351.634 258.796 351.49 258.676C351.354 258.556 351.286 258.408 351.286 258.232ZM354.897 257.848H356.013V260.056H357.381V260.932H356.013V265H354.897V260.932H353.985V260.056H354.897V257.848Z" fill="#807159"/>
<rect x="382.5" y="253" width="18" height="18" fill="#885539"/>
<path d="M407.136 261.928H409.38V262.912H407.136V261.928ZM415.189 256.324H416.353V265H415.189V256.324ZM419.566 260.032L419.662 261.244L419.614 261.052C419.774 260.684 420.034 260.392 420.394 260.176C420.754 259.952 421.17 259.84 421.642 259.84C422.114 259.84 422.498 259.98 422.794 260.26C423.098 260.532 423.254 260.888 423.262 261.328V265H422.134V261.724C422.126 261.452 422.046 261.232 421.894 261.064C421.75 260.888 421.522 260.8 421.21 260.8C420.922 260.8 420.662 260.88 420.43 261.04C420.198 261.2 420.014 261.42 419.878 261.7C419.75 261.98 419.686 262.304 419.686 262.672V265H418.57V260.032H419.566ZM425.682 257.848H426.798V260.056H428.166V260.932H426.798V265H425.682V260.932H424.77V260.056H425.682V257.848ZM431.819 265.12C431.251 265.12 430.763 265.008 430.355 264.784C429.947 264.552 429.631 264.24 429.407 263.848C429.191 263.448 429.083 262.992 429.083 262.48C429.083 261.992 429.207 261.548 429.455 261.148C429.703 260.748 430.035 260.428 430.451 260.188C430.867 259.948 431.331 259.828 431.843 259.828C432.499 259.828 433.043 260.02 433.475 260.404C433.907 260.788 434.199 261.316 434.351 261.988L430.259 263.428L429.995 262.768L433.355 261.544L433.115 261.7C433.019 261.436 432.859 261.208 432.635 261.016C432.411 260.816 432.119 260.716 431.759 260.716C431.455 260.716 431.183 260.792 430.943 260.944C430.703 261.088 430.515 261.288 430.379 261.544C430.243 261.8 430.175 262.092 430.175 262.42C430.175 262.764 430.247 263.068 430.391 263.332C430.535 263.588 430.731 263.792 430.979 263.944C431.235 264.088 431.523 264.16 431.843 264.16C432.059 264.16 432.267 264.12 432.467 264.04C432.675 263.96 432.867 263.856 433.043 263.728L433.559 264.556C433.311 264.724 433.031 264.86 432.719 264.964C432.415 265.068 432.115 265.12 431.819 265.12ZM436.745 260.032L436.853 261.472L436.793 261.28C436.921 260.976 437.105 260.72 437.345 260.512C437.593 260.296 437.849 260.132 438.113 260.02C438.385 259.9 438.621 259.84 438.821 259.84L438.761 260.944C438.385 260.92 438.053 260.992 437.765 261.16C437.485 261.328 437.261 261.552 437.093 261.832C436.933 262.112 436.853 262.412 436.853 262.732V265H435.749V260.032H436.745ZM442.354 265.12C441.786 265.12 441.298 265.008 440.89 264.784C440.482 264.552 440.166 264.24 439.942 263.848C439.726 263.448 439.618 262.992 439.618 262.48C439.618 261.992 439.742 261.548 439.99 261.148C440.238 260.748 440.57 260.428 440.986 260.188C441.402 259.948 441.866 259.828 442.378 259.828C443.034 259.828 443.578 260.02 444.01 260.404C444.442 260.788 444.734 261.316 444.886 261.988L440.794 263.428L440.53 262.768L443.89 261.544L443.65 261.7C443.554 261.436 443.394 261.208 443.17 261.016C442.946 260.816 442.654 260.716 442.294 260.716C441.99 260.716 441.718 260.792 441.478 260.944C441.238 261.088 441.05 261.288 440.914 261.544C440.778 261.8 440.71 262.092 440.71 262.42C440.71 262.764 440.782 263.068 440.926 263.332C441.07 263.588 441.266 263.792 441.514 263.944C441.77 264.088 442.058 264.16 442.378 264.16C442.594 264.16 442.802 264.12 443.002 264.04C443.21 263.96 443.402 263.856 443.578 263.728L444.094 264.556C443.846 264.724 443.566 264.86 443.254 264.964C442.95 265.068 442.65 265.12 442.354 265.12ZM447.677 265.096C447.325 265.096 446.981 265.036 446.645 264.916C446.317 264.788 446.045 264.6 445.829 264.352L446.297 263.704C446.505 263.904 446.717 264.056 446.933 264.16C447.157 264.256 447.377 264.304 447.593 264.304C447.753 264.304 447.901 264.284 448.037 264.244C448.173 264.204 448.281 264.14 448.361 264.052C448.449 263.956 448.493 263.828 448.493 263.668C448.493 263.492 448.433 263.352 448.312 263.248C448.201 263.144 448.053 263.06 447.869 262.996C447.693 262.932 447.505 262.872 447.305 262.816C446.897 262.68 446.585 262.492 446.369 262.252C446.153 262.012 446.045 261.72 446.045 261.376C446.045 261.112 446.109 260.868 446.237 260.644C446.373 260.412 446.569 260.224 446.825 260.08C447.089 259.936 447.413 259.864 447.797 259.864C448.141 259.864 448.449 259.908 448.721 259.996C448.993 260.076 449.249 260.212 449.489 260.404L449.045 261.1C448.901 260.948 448.729 260.836 448.529 260.764C448.329 260.692 448.149 260.652 447.989 260.644C447.853 260.636 447.721 260.656 447.593 260.704C447.473 260.752 447.373 260.82 447.293 260.908C447.213 260.996 447.173 261.1 447.173 261.22C447.173 261.388 447.229 261.524 447.341 261.628C447.453 261.732 447.597 261.816 447.773 261.88C447.957 261.936 448.137 261.996 448.312 262.06C448.561 262.132 448.781 262.228 448.973 262.348C449.165 262.468 449.317 262.616 449.429 262.792C449.549 262.968 449.609 263.188 449.609 263.452C449.609 263.748 449.537 264.024 449.393 264.28C449.257 264.528 449.045 264.728 448.757 264.88C448.477 265.024 448.117 265.096 447.677 265.096ZM451.651 257.848H452.767V260.056H454.135V260.932H452.767V265H451.651V260.932H450.739V260.056H451.651V257.848Z" fill="#807159"/>
</svg>
