<svg width="28" height="20" viewBox="0 0 28 20" fill="none" xmlns="http://www.w3.org/2000/svg">
    <rect width="2" height="2" transform="matrix(1 0 0 -1 12 19.998)" fill="#663201"/>
    <rect width="2" height="2" transform="matrix(1 0 0 -1 14 19.998)" fill="#663201"/>
    <rect width="2" height="2" transform="matrix(1 0 0 -1 10 17.998)" fill="#663201"/>
    <rect width="2" height="2" transform="matrix(1 0 0 -1 12 17.998)" fill="#FFEC02"/>
    <rect width="2" height="2" transform="matrix(1 0 0 -1 14 17.998)" fill="#FFCC33"/>
    <rect width="2" height="2" transform="matrix(1 0 0 -1 16 17.998)" fill="#663201"/>
    <rect width="2" height="2" transform="matrix(1 0 0 -1 8 15.998)" fill="#663201"/>
    <rect width="2" height="2" transform="matrix(1 0 0 -1 10 15.998)" fill="#FFEC02"/>
    <rect width="2" height="2" transform="matrix(1 0 0 -1 12 15.998)" fill="#FFAC2F"/>
    <rect width="2" height="2" transform="matrix(1 0 0 -1 14 15.998)" fill="#D88400"/>
    <rect width="2" height="2" transform="matrix(1 0 0 -1 16 15.998)" fill="#FFCC33"/>
    <rect width="2" height="2" transform="matrix(1 0 0 -1 18 15.998)" fill="#663201"/>
    <rect width="2" height="2" transform="matrix(1 0 0 -1 6 13.998)" fill="#663201"/>
    <rect width="2" height="2" transform="matrix(1 0 0 -1 8 13.998)" fill="#FFEC02"/>
    <rect width="2" height="2" transform="matrix(1 0 0 -1 10 13.998)" fill="#FFAC2F"/>
    <rect width="2" height="2" transform="matrix(1 0 0 -1 12 13.998)" fill="#FE9900"/>
    <rect width="2" height="2" transform="matrix(1 0 0 -1 14 13.998)" fill="#9D5829"/>
    <rect width="2" height="2" transform="matrix(1 0 0 -1 16 13.998)" fill="#D88400"/>
    <rect width="2" height="2" transform="matrix(1 0 0 -1 18 13.998)" fill="#FFCC33"/>
    <rect width="2" height="2" transform="matrix(1 0 0 -1 20 13.998)" fill="#663201"/>
    <rect width="2" height="2" transform="matrix(1 0 0 -1 4 11.998)" fill="#663201"/>
    <rect width="2" height="2" transform="matrix(1 0 0 -1 6 11.998)" fill="#FFEC02"/>
    <rect width="2" height="2" transform="matrix(1 0 0 -1 8 11.998)" fill="#FFAC2F"/>
    <rect width="2" height="2" transform="matrix(1 0 0 -1 10 11.998)" fill="#FE9900"/>
    <rect width="2" height="2" transform="matrix(1 0 0 -1 12 11.998)" fill="#FE9900"/>
    <rect width="2" height="2" transform="matrix(1 0 0 -1 14 11.998)" fill="#9D5829"/>
    <rect width="2" height="2" transform="matrix(1 0 0 -1 16 11.998)" fill="#9D5829"/>
    <rect width="2" height="2" transform="matrix(1 0 0 -1 18 11.998)" fill="#D88400"/>
    <rect width="2" height="2" transform="matrix(1 0 0 -1 20 11.998)" fill="#FFCC33"/>
    <rect width="2" height="2" transform="matrix(1 0 0 -1 22 11.998)" fill="#663201"/>
    <rect width="2" height="2" transform="matrix(1 0 0 -1 2 9.99805)" fill="#663201"/>
    <rect width="2" height="2" transform="matrix(1 0 0 -1 4 9.99805)" fill="#FFEC02"/>
    <rect width="2" height="2" transform="matrix(1 0 0 -1 6 9.99805)" fill="#FFAC2F"/>
    <rect width="2" height="2" transform="matrix(1 0 0 -1 8 9.99805)" fill="#FE9900"/>
    <rect width="2" height="2" transform="matrix(1 0 0 -1 10 9.99805)" fill="#FE9900"/>
    <rect width="2" height="2" transform="matrix(1 0 0 -1 12 9.99805)" fill="#FE9900"/>
    <rect width="2" height="2" transform="matrix(1 0 0 -1 14 9.99805)" fill="#9D5829"/>
    <rect width="2" height="2" transform="matrix(1 0 0 -1 16 9.99805)" fill="#9D5829"/>
    <rect width="2" height="2" transform="matrix(1 0 0 -1 18 9.99805)" fill="#9D5829"/>
    <rect width="2" height="2" transform="matrix(1 0 0 -1 20 9.99805)" fill="#D88400"/>
    <rect width="2" height="2" transform="matrix(1 0 0 -1 22 9.99805)" fill="#FFCC33"/>
    <rect width="2" height="2" transform="matrix(1 0 0 -1 24 9.99805)" fill="#663201"/>
    <rect width="2" height="2" transform="matrix(1 0 0 -1 0 7.99805)" fill="#663201"/>
    <rect width="2" height="2" transform="matrix(1 0 0 -1 2 7.99805)" fill="#FFEC02"/>
    <rect width="2" height="2" transform="matrix(1 0 0 -1 4 7.99805)" fill="#FFAC2F"/>
    <rect width="2" height="2" transform="matrix(1 0 0 -1 6 7.99805)" fill="#FE9900"/>
    <rect width="2" height="2" transform="matrix(1 0 0 -1 8 7.99805)" fill="#FE9900"/>
    <rect width="2" height="2" transform="matrix(1 0 0 -1 10 7.99805)" fill="#FE9900"/>
    <rect width="2" height="2" transform="matrix(1 0 0 -1 12 7.99805)" fill="#FE9900"/>
    <rect width="2" height="2" transform="matrix(1 0 0 -1 14 7.99805)" fill="#9D5829"/>
    <rect width="2" height="2" transform="matrix(1 0 0 -1 16 7.99805)" fill="#9D5829"/>
    <rect width="2" height="2" transform="matrix(1 0 0 -1 18 7.99805)" fill="#9D5829"/>
    <rect width="2" height="2" transform="matrix(1 0 0 -1 20 7.99805)" fill="#9D5829"/>
    <rect width="2" height="2" transform="matrix(1 0 0 -1 22 7.99805)" fill="#D88400"/>
    <rect width="2" height="2" transform="matrix(1 0 0 -1 24 7.99805)" fill="#FFCC33"/>
    <rect width="2" height="2" transform="matrix(1 0 0 -1 26 7.99805)" fill="#663201"/>
    <rect width="2" height="2" transform="matrix(1 0 0 -1 0 6)" fill="#663201"/>
    <rect width="2" height="2" transform="matrix(1 0 0 -1 2 6)" fill="#FFCC33"/>
    <rect width="2" height="2" transform="matrix(1 0 0 -1 4 6)" fill="#9D5829"/>
    <rect width="2" height="2" transform="matrix(1 0 0 -1 6 6)" fill="#9D5829"/>
    <rect width="2" height="2" transform="matrix(1 0 0 -1 8 6)" fill="#9D5829"/>
    <rect width="2" height="2" transform="matrix(1 0 0 -1 10 6)" fill="#9D5829"/>
    <rect width="2" height="2" transform="matrix(1 0 0 -1 12 6)" fill="#9D5829"/>
    <rect width="2" height="2" transform="matrix(1 0 0 -1 14 6)" fill="#D88400"/>
    <rect width="2" height="2" transform="matrix(1 0 0 -1 16 6)" fill="#D88400"/>
    <rect width="2" height="2" transform="matrix(1 0 0 -1 18 6)" fill="#D88400"/>
    <rect width="2" height="2" transform="matrix(1 0 0 -1 20 6)" fill="#D88400"/>
    <rect width="2" height="2" transform="matrix(1 0 0 -1 22 6)" fill="#D88400"/>
    <rect width="2" height="2" transform="matrix(1 0 0 -1 24 6)" fill="#FFCC33"/>
    <rect width="2" height="2" transform="matrix(1 0 0 -1 26 6)" fill="#663201"/>
    <rect width="2" height="2" transform="matrix(1 0 0 -1 0 4)" fill="#663201"/>
    <rect width="2" height="2" transform="matrix(1 0 0 -1 2 4)" fill="#FFCC33"/>
    <rect width="2" height="2" transform="matrix(1 0 0 -1 4 4)" fill="#FFCC33"/>
    <rect width="2" height="2" transform="matrix(1 0 0 -1 6 4)" fill="#FFCC33"/>
    <rect width="2" height="2" transform="matrix(1 0 0 -1 8 4)" fill="#FFCC33"/>
    <rect width="2" height="2" transform="matrix(1 0 0 -1 10 4)" fill="#FFCC33"/>
    <rect width="2" height="2" transform="matrix(1 0 0 -1 12 4)" fill="#FFCC33"/>
    <rect width="2" height="2" transform="matrix(1 0 0 -1 14 4)" fill="#FFCC33"/>
    <rect width="2" height="2" transform="matrix(1 0 0 -1 16 4)" fill="#FFCC33"/>
    <rect width="2" height="2" transform="matrix(1 0 0 -1 18 4)" fill="#FFCC33"/>
    <rect width="2" height="2" transform="matrix(1 0 0 -1 20 4)" fill="#FFCC33"/>
    <rect width="2" height="2" transform="matrix(1 0 0 -1 22 4)" fill="#FFCC33"/>
    <rect width="2" height="2" transform="matrix(1 0 0 -1 24 4)" fill="#FFCC33"/>
    <rect width="2" height="2" transform="matrix(1 0 0 -1 26 4)" fill="#663201"/>
    <rect width="2" height="2" transform="matrix(1 0 0 -1 0 2)" fill="#663201"/>
    <rect width="2" height="2" transform="matrix(1 0 0 -1 2 2)" fill="#663201"/>
    <rect width="2" height="2" transform="matrix(1 0 0 -1 4 2)" fill="#663201"/>
    <rect width="2" height="2" transform="matrix(1 0 0 -1 6 2)" fill="#663201"/>
    <rect width="2" height="2" transform="matrix(1 0 0 -1 8 2)" fill="#663201"/>
    <rect width="2" height="2" transform="matrix(1 0 0 -1 10 2)" fill="#663201"/>
    <rect width="2" height="2" transform="matrix(1 0 0 -1 12 2)" fill="#663201"/>
    <rect width="2" height="2" transform="matrix(1 0 0 -1 14 2)" fill="#663201"/>
    <rect width="2" height="2" transform="matrix(1 0 0 -1 16 2)" fill="#663201"/>
    <rect width="2" height="2" transform="matrix(1 0 0 -1 18 2)" fill="#663201"/>
    <rect width="2" height="2" transform="matrix(1 0 0 -1 20 2)" fill="#663201"/>
    <rect width="2" height="2" transform="matrix(1 0 0 -1 22 2)" fill="#663201"/>
    <rect width="2" height="2" transform="matrix(1 0 0 -1 24 2)" fill="#663201"/>
    <rect width="2" height="2" transform="matrix(1 0 0 -1 26 2)" fill="#663201"/>
</svg>
