<svg width="14" height="14" viewBox="0 0 14 14" fill="none" xmlns="http://www.w3.org/2000/svg">
<circle cx="7" cy="7" r="7" fill="#C7B393"/>
<path d="M6.54637 8.34949C6.54637 8.07268 6.58954 7.83046 6.67588 7.62285C6.76886 7.40831 6.87844 7.22838 7.00463 7.08306C7.13746 6.93773 7.31013 6.76472 7.52266 6.56402C7.78831 6.32181 7.98423 6.1142 8.11042 5.94119C8.2366 5.76126 8.29969 5.54672 8.29969 5.29759C8.29969 4.95849 8.17351 4.68859 7.92114 4.4879C7.66877 4.28029 7.32009 4.17648 6.87512 4.17648C6.09808 4.17648 5.50368 4.44984 5.09191 4.99655L4.36469 4.45676C4.64362 4.08306 4.99894 3.79586 5.43062 3.59517C5.86895 3.39447 6.3737 3.29413 6.94486 3.29413C7.66876 3.29413 8.24324 3.46022 8.66829 3.7924C9.09334 4.11766 9.30586 4.56748 9.30586 5.14188C9.30586 5.42562 9.25937 5.67821 9.16639 5.89966C9.08006 6.1142 8.97379 6.29413 8.84761 6.43946C8.72142 6.58479 8.55207 6.7578 8.33954 6.95849C8.06725 7.21454 7.86469 7.43946 7.73186 7.63323C7.60567 7.827 7.54258 8.06575 7.54258 8.34949H6.54637ZM7.05444 10.7059C6.86848 10.7059 6.71241 10.6436 6.58622 10.519C6.46668 10.3876 6.40691 10.2284 6.40691 10.0415C6.40691 9.85468 6.46668 9.69897 6.58622 9.5744C6.71241 9.44292 6.86848 9.37717 7.05444 9.37717C7.2404 9.37717 7.39315 9.44292 7.51269 9.5744C7.63224 9.69897 7.69201 9.85468 7.69201 10.0415C7.69201 10.2284 7.62892 10.3876 7.50273 10.519C7.38319 10.6436 7.23376 10.7059 7.05444 10.7059Z" fill="white"/>
</svg>
