<svg width="39" height="54" viewBox="0 0 39 54" fill="none" xmlns="http://www.w3.org/2000/svg">
<rect x="38.9971" y="23.1428" width="3.85714" height="3.9" transform="rotate(90 38.9971 23.1428)" fill="#663201"/>
<rect x="38.9971" y="27" width="3.85714" height="3.9" transform="rotate(90 38.9971 27)" fill="#663201"/>
<rect x="35.0977" y="19.2859" width="3.85714" height="3.9" transform="rotate(90 35.0977 19.2859)" fill="#663201"/>
<rect x="35.0977" y="23.1428" width="3.85714" height="3.9" transform="rotate(90 35.0977 23.1428)" fill="#FFEC02"/>
<rect x="35.0977" y="27" width="3.85714" height="3.9" transform="rotate(90 35.0977 27)" fill="#FFCC33"/>
<rect x="35.0977" y="30.8572" width="3.85714" height="3.9" transform="rotate(90 35.0977 30.8572)" fill="#663201"/>
<rect x="31.1978" y="15.4287" width="3.85714" height="3.9" transform="rotate(90 31.1978 15.4287)" fill="#663201"/>
<rect x="31.1978" y="19.2859" width="3.85714" height="3.9" transform="rotate(90 31.1978 19.2859)" fill="#FFEC02"/>
<rect x="31.1978" y="23.1428" width="3.85714" height="3.9" transform="rotate(90 31.1978 23.1428)" fill="#FFAC2F"/>
<rect x="31.1978" y="27" width="3.85714" height="3.9" transform="rotate(90 31.1978 27)" fill="#D88400"/>
<rect x="31.1978" y="30.8572" width="3.85714" height="3.9" transform="rotate(90 31.1978 30.8572)" fill="#FFCC33"/>
<rect x="31.1978" y="34.7141" width="3.85715" height="3.9" transform="rotate(90 31.1978 34.7141)" fill="#663201"/>
<rect x="27.2979" y="11.5713" width="3.85714" height="3.9" transform="rotate(90 27.2979 11.5713)" fill="#663201"/>
<rect x="27.2979" y="15.4287" width="3.85714" height="3.9" transform="rotate(90 27.2979 15.4287)" fill="#FFEC02"/>
<rect x="27.2979" y="19.2859" width="3.85714" height="3.9" transform="rotate(90 27.2979 19.2859)" fill="#FFAC2F"/>
<rect x="27.2979" y="23.1428" width="3.85714" height="3.9" transform="rotate(90 27.2979 23.1428)" fill="#FE9900"/>
<rect x="27.2979" y="27" width="3.85714" height="3.9" transform="rotate(90 27.2979 27)" fill="#9D5829"/>
<rect x="27.2979" y="30.8572" width="3.85714" height="3.9" transform="rotate(90 27.2979 30.8572)" fill="#D88400"/>
<rect x="27.2979" y="34.7141" width="3.85715" height="3.9" transform="rotate(90 27.2979 34.7141)" fill="#FFCC33"/>
<rect x="27.2979" y="38.5713" width="3.85714" height="3.9" transform="rotate(90 27.2979 38.5713)" fill="#663201"/>
<rect x="23.3979" y="7.71411" width="3.85714" height="3.9" transform="rotate(90 23.3979 7.71411)" fill="#663201"/>
<rect x="23.3979" y="11.5713" width="3.85714" height="3.9" transform="rotate(90 23.3979 11.5713)" fill="#FFEC02"/>
<rect x="23.3979" y="15.4287" width="3.85714" height="3.9" transform="rotate(90 23.3979 15.4287)" fill="#FFAC2F"/>
<rect x="23.3979" y="19.2859" width="3.85714" height="3.9" transform="rotate(90 23.3979 19.2859)" fill="#FE9900"/>
<rect x="23.3979" y="23.1428" width="3.85714" height="3.9" transform="rotate(90 23.3979 23.1428)" fill="#FE9900"/>
<rect x="23.3979" y="27" width="3.85714" height="3.9" transform="rotate(90 23.3979 27)" fill="#9D5829"/>
<rect x="23.3979" y="30.8572" width="3.85714" height="3.9" transform="rotate(90 23.3979 30.8572)" fill="#9D5829"/>
<rect x="23.3979" y="34.7141" width="3.85715" height="3.9" transform="rotate(90 23.3979 34.7141)" fill="#D88400"/>
<rect x="23.3979" y="38.5713" width="3.85714" height="3.9" transform="rotate(90 23.3979 38.5713)" fill="#FFCC33"/>
<rect x="23.3979" y="42.4287" width="3.85714" height="3.9" transform="rotate(90 23.3979 42.4287)" fill="#663201"/>
<rect x="19.4985" y="3.85718" width="3.85714" height="3.89999" transform="rotate(90 19.4985 3.85718)" fill="#663201"/>
<rect x="19.4985" y="7.71411" width="3.85714" height="3.89999" transform="rotate(90 19.4985 7.71411)" fill="#FFEC02"/>
<rect x="19.4985" y="11.5713" width="3.85714" height="3.89999" transform="rotate(90 19.4985 11.5713)" fill="#FFAC2F"/>
<rect x="19.4985" y="15.4287" width="3.85714" height="3.89999" transform="rotate(90 19.4985 15.4287)" fill="#FE9900"/>
<rect x="19.4985" y="19.2859" width="3.85714" height="3.89999" transform="rotate(90 19.4985 19.2859)" fill="#FE9900"/>
<rect x="19.4985" y="23.1428" width="3.85714" height="3.89999" transform="rotate(90 19.4985 23.1428)" fill="#FE9900"/>
<rect x="19.4985" y="27" width="3.85714" height="3.89999" transform="rotate(90 19.4985 27)" fill="#9D5829"/>
<rect x="19.4985" y="30.8572" width="3.85714" height="3.89999" transform="rotate(90 19.4985 30.8572)" fill="#9D5829"/>
<rect x="19.4985" y="34.7141" width="3.85715" height="3.89999" transform="rotate(90 19.4985 34.7141)" fill="#9D5829"/>
<rect x="19.4985" y="38.5713" width="3.85714" height="3.89999" transform="rotate(90 19.4985 38.5713)" fill="#D88400"/>
<rect x="19.4985" y="42.4287" width="3.85714" height="3.89999" transform="rotate(90 19.4985 42.4287)" fill="#FFCC33"/>
<rect x="19.4985" y="46.2859" width="3.85715" height="3.89999" transform="rotate(90 19.4985 46.2859)" fill="#663201"/>
<rect x="15.5986" width="3.85714" height="3.9" transform="rotate(90 15.5986 0)" fill="#663201"/>
<rect x="15.5986" y="3.85718" width="3.85714" height="3.9" transform="rotate(90 15.5986 3.85718)" fill="#FFEC02"/>
<rect x="15.5986" y="7.71411" width="3.85714" height="3.9" transform="rotate(90 15.5986 7.71411)" fill="#FFAC2F"/>
<rect x="15.5986" y="11.5715" width="3.85714" height="3.9" transform="rotate(90 15.5986 11.5715)" fill="#FE9900"/>
<rect x="15.5986" y="15.4285" width="3.85714" height="3.9" transform="rotate(90 15.5986 15.4285)" fill="#FE9900"/>
<rect x="15.5986" y="19.2859" width="3.85714" height="3.9" transform="rotate(90 15.5986 19.2859)" fill="#FE9900"/>
<rect x="15.5986" y="23.1428" width="3.85714" height="3.9" transform="rotate(90 15.5986 23.1428)" fill="#FE9900"/>
<rect x="15.5986" y="27" width="3.85714" height="3.9" transform="rotate(90 15.5986 27)" fill="#9D5829"/>
<rect x="15.5986" y="30.8572" width="3.85714" height="3.9" transform="rotate(90 15.5986 30.8572)" fill="#9D5829"/>
<rect x="15.5986" y="34.7141" width="3.85715" height="3.9" transform="rotate(90 15.5986 34.7141)" fill="#9D5829"/>
<rect x="15.5986" y="38.5715" width="3.85714" height="3.9" transform="rotate(90 15.5986 38.5715)" fill="#9D5829"/>
<rect x="15.5986" y="42.4285" width="3.85714" height="3.9" transform="rotate(90 15.5986 42.4285)" fill="#D88400"/>
<rect x="15.5986" y="46.2859" width="3.85715" height="3.9" transform="rotate(90 15.5986 46.2859)" fill="#FFCC33"/>
<rect x="15.5986" y="50.1428" width="3.85715" height="3.9" transform="rotate(90 15.5986 50.1428)" fill="#663201"/>
<rect x="11.6992" width="3.85714" height="3.9" transform="rotate(90 11.6992 0)" fill="#663201"/>
<rect x="11.6992" y="3.85718" width="3.85714" height="3.9" transform="rotate(90 11.6992 3.85718)" fill="#FFCC33"/>
<rect x="11.6992" y="7.71411" width="3.85714" height="3.9" transform="rotate(90 11.6992 7.71411)" fill="#9D5829"/>
<rect x="11.6992" y="11.5713" width="3.85714" height="3.9" transform="rotate(90 11.6992 11.5713)" fill="#9D5829"/>
<rect x="11.6992" y="15.4287" width="3.85714" height="3.9" transform="rotate(90 11.6992 15.4287)" fill="#9D5829"/>
<rect x="11.6992" y="19.2859" width="3.85714" height="3.9" transform="rotate(90 11.6992 19.2859)" fill="#9D5829"/>
<rect x="11.6992" y="23.1428" width="3.85714" height="3.9" transform="rotate(90 11.6992 23.1428)" fill="#9D5829"/>
<rect x="11.6992" y="27" width="3.85714" height="3.9" transform="rotate(90 11.6992 27)" fill="#D88400"/>
<rect x="11.6992" y="30.8572" width="3.85714" height="3.9" transform="rotate(90 11.6992 30.8572)" fill="#D88400"/>
<rect x="11.6992" y="34.7141" width="3.85715" height="3.9" transform="rotate(90 11.6992 34.7141)" fill="#D88400"/>
<rect x="11.6992" y="38.5713" width="3.85714" height="3.9" transform="rotate(90 11.6992 38.5713)" fill="#D88400"/>
<rect x="11.6992" y="42.4287" width="3.85714" height="3.9" transform="rotate(90 11.6992 42.4287)" fill="#D88400"/>
<rect x="11.6992" y="46.2859" width="3.85715" height="3.9" transform="rotate(90 11.6992 46.2859)" fill="#FFCC33"/>
<rect x="11.6992" y="50.1428" width="3.85715" height="3.9" transform="rotate(90 11.6992 50.1428)" fill="#663201"/>
<rect x="7.79932" width="3.85714" height="3.9" transform="rotate(90 7.79932 0)" fill="#663201"/>
<rect x="7.79932" y="3.85718" width="3.85714" height="3.9" transform="rotate(90 7.79932 3.85718)" fill="#FFCC33"/>
<rect x="7.79932" y="7.71411" width="3.85714" height="3.9" transform="rotate(90 7.79932 7.71411)" fill="#FFCC33"/>
<rect x="7.79932" y="11.5715" width="3.85714" height="3.9" transform="rotate(90 7.79932 11.5715)" fill="#FFCC33"/>
<rect x="7.79932" y="15.4285" width="3.85714" height="3.9" transform="rotate(90 7.79932 15.4285)" fill="#FFCC33"/>
<rect x="7.79932" y="19.2859" width="3.85714" height="3.9" transform="rotate(90 7.79932 19.2859)" fill="#FFCC33"/>
<rect x="7.79932" y="23.1428" width="3.85714" height="3.9" transform="rotate(90 7.79932 23.1428)" fill="#FFCC33"/>
<rect x="7.79932" y="27" width="3.85714" height="3.9" transform="rotate(90 7.79932 27)" fill="#FFCC33"/>
<rect x="7.79932" y="30.8572" width="3.85714" height="3.9" transform="rotate(90 7.79932 30.8572)" fill="#FFCC33"/>
<rect x="7.79932" y="34.7141" width="3.85715" height="3.9" transform="rotate(90 7.79932 34.7141)" fill="#FFCC33"/>
<rect x="7.79932" y="38.5715" width="3.85714" height="3.9" transform="rotate(90 7.79932 38.5715)" fill="#FFCC33"/>
<rect x="7.79932" y="42.4285" width="3.85714" height="3.9" transform="rotate(90 7.79932 42.4285)" fill="#FFCC33"/>
<rect x="7.79932" y="46.2859" width="3.85715" height="3.9" transform="rotate(90 7.79932 46.2859)" fill="#FFCC33"/>
<rect x="7.79932" y="50.1428" width="3.85715" height="3.9" transform="rotate(90 7.79932 50.1428)" fill="#663201"/>
<rect x="3.8999" width="3.85714" height="3.9" transform="rotate(90 3.8999 0)" fill="#663201"/>
<rect x="3.8999" y="3.85718" width="3.85714" height="3.9" transform="rotate(90 3.8999 3.85718)" fill="#663201"/>
<rect x="3.8999" y="7.71436" width="3.85714" height="3.9" transform="rotate(90 3.8999 7.71436)" fill="#663201"/>
<rect x="3.8999" y="11.5715" width="3.85714" height="3.9" transform="rotate(90 3.8999 11.5715)" fill="#663201"/>
<rect x="3.8999" y="15.4285" width="3.85714" height="3.9" transform="rotate(90 3.8999 15.4285)" fill="#663201"/>
<rect x="3.8999" y="19.2856" width="3.85714" height="3.9" transform="rotate(90 3.8999 19.2856)" fill="#663201"/>
<rect x="3.8999" y="23.1428" width="3.85714" height="3.9" transform="rotate(90 3.8999 23.1428)" fill="#663201"/>
<rect x="3.8999" y="27" width="3.85714" height="3.9" transform="rotate(90 3.8999 27)" fill="#663201"/>
<rect x="3.8999" y="30.8572" width="3.85714" height="3.9" transform="rotate(90 3.8999 30.8572)" fill="#663201"/>
<rect x="3.8999" y="34.7144" width="3.85714" height="3.9" transform="rotate(90 3.8999 34.7144)" fill="#663201"/>
<rect x="3.8999" y="38.5715" width="3.85714" height="3.9" transform="rotate(90 3.8999 38.5715)" fill="#663201"/>
<rect x="3.8999" y="42.4285" width="3.85714" height="3.9" transform="rotate(90 3.8999 42.4285)" fill="#663201"/>
<rect x="3.8999" y="46.2856" width="3.85715" height="3.9" transform="rotate(90 3.8999 46.2856)" fill="#663201"/>
<rect x="3.8999" y="50.1428" width="3.85714" height="3.9" transform="rotate(90 3.8999 50.1428)" fill="#663201"/>
</svg>
