<svg width="92" height="88" viewBox="0 0 92 88" fill="none" xmlns="http://www.w3.org/2000/svg">
<path fill-rule="evenodd" clip-rule="evenodd" d="M21.4719 10.2373H70.4721C69.413 8.32226 67.8448 6.18757 66.2241 4.66106C61.2642 7.48717 48.9949 6.20896 45.972 0C42.9493 6.20896 30.68 7.48717 25.7199 4.66106C24.0993 6.18757 22.5311 8.32226 21.4719 10.2373Z" fill="#94D2FD"/>
<path fill-rule="evenodd" clip-rule="evenodd" d="M21.4719 10.2373H45.972V0C42.9493 6.20896 30.68 7.48717 25.7199 4.66106C24.0993 6.18757 22.5311 8.32226 21.4719 10.2373Z" fill="url(#paint0_linear_426_4753)"/>
<path fill-rule="evenodd" clip-rule="evenodd" d="M70.472 10.2373H45.9719V0C48.9948 6.20896 61.2641 7.48717 66.224 4.66106C67.8448 6.18757 69.413 8.32226 70.472 10.2373Z" fill="url(#paint1_linear_426_4753)"/>
<g style="mix-blend-mode:screen">
<path style="mix-blend-mode:screen" fill-rule="evenodd" clip-rule="evenodd" d="M43.6989 7.0399C38.6946 10.0924 29.3727 9.95042 24.1274 10.2372H45.9721V2.48724C45.9721 4.73958 45.5746 5.89581 43.6989 7.0399Z" fill="url(#paint2_linear_426_4753)"/>
</g>
<path fill-rule="evenodd" clip-rule="evenodd" d="M28.7109 82.0198C29.399 83.0234 31.0251 84.4672 31.8533 84.8673C33.6687 84.8673 39.9054 84.8375 45.9718 87.9998C52.0383 84.8375 58.275 84.8673 60.0906 84.8673C60.9188 84.4672 62.5449 83.0234 63.233 82.0198H28.7109Z" fill="#5C8EEA"/>
<path fill-rule="evenodd" clip-rule="evenodd" d="M28.7109 82.0198C29.399 83.0234 31.0251 84.4672 31.8533 84.8673C33.6687 84.8673 39.9054 84.8375 45.9718 87.9998V82.0198H28.7109Z" fill="url(#paint3_linear_426_4753)"/>
<path fill-rule="evenodd" clip-rule="evenodd" d="M63.2331 82.0198C62.545 83.0234 60.919 84.4672 60.0907 84.8673C58.2751 84.8673 52.0385 84.8375 45.9719 87.9998V82.0198H63.2331Z" fill="url(#paint4_linear_426_4753)"/>
<path fill-rule="evenodd" clip-rule="evenodd" d="M23.9943 13.0386H67.9719L70.4943 10.2373H67.3706H62.093H24.1689H22.5588H21.4719L23.9943 13.0386Z" fill="url(#paint5_linear_426_4753)"/>
<path fill-rule="evenodd" clip-rule="evenodd" d="M67.9719 13.0388H23.9502L26.0931 15.8398H65.8287L67.9719 13.0388Z" fill="url(#paint6_linear_426_4753)"/>
<path fill-rule="evenodd" clip-rule="evenodd" d="M12.2592 24.8234C18.168 23.6802 22.8494 18.9761 23.9867 13.0386L21.4644 10.2373C21.4644 16.8654 16.0679 22.2887 9.47192 22.2887L12.2592 24.8234Z" fill="url(#paint7_linear_426_4753)"/>
<path fill-rule="evenodd" clip-rule="evenodd" d="M23.9868 13.0388C22.8495 18.9764 18.1681 23.6805 12.2593 24.8237L15.0468 26.9772C20.25 25.2177 24.3792 21.0686 26.1298 15.8398L23.9868 13.0388Z" fill="url(#paint8_linear_426_4753)"/>
<path fill-rule="evenodd" clip-rule="evenodd" d="M12.2592 67.4333L12.2592 24.8225L9.47194 22.2877L9.47192 69.9684L12.2592 67.4333Z" fill="url(#paint9_linear_426_4753)"/>
<path fill-rule="evenodd" clip-rule="evenodd" d="M12.2593 24.8181V67.4336L15.0468 65.2807V26.9715L12.2593 24.8181Z" fill="url(#paint10_linear_426_4753)"/>
<path fill-rule="evenodd" clip-rule="evenodd" d="M67.9636 13.0385C69.101 18.976 73.7821 23.6802 79.6909 24.8234L82.4781 22.2886C75.8822 22.2886 70.486 16.8653 70.486 10.2372L67.9636 13.0385Z" fill="url(#paint11_linear_426_4753)"/>
<path fill-rule="evenodd" clip-rule="evenodd" d="M79.6908 24.8236C73.782 23.6804 69.1009 18.9763 67.9635 13.0388L65.8203 15.8397C67.5712 21.0685 71.7 25.2176 76.9032 26.9771L79.6908 24.8236Z" fill="url(#paint12_linear_426_4753)"/>
<path fill-rule="evenodd" clip-rule="evenodd" d="M76.9033 26.9715V65.2804L79.6909 67.4333V24.818L76.9033 26.9715Z" fill="url(#paint13_linear_426_4753)"/>
<path fill-rule="evenodd" clip-rule="evenodd" d="M79.6909 24.8211V67.4331L82.4782 69.9681V22.2864L79.6909 24.8211Z" fill="url(#paint14_linear_426_4753)"/>
<path fill-rule="evenodd" clip-rule="evenodd" d="M76.9032 65.2809C71.7 67.0398 67.5712 71.1892 65.8203 76.418L67.9635 79.219C69.1009 73.2814 73.782 68.577 79.6908 67.4338L76.9032 65.2809Z" fill="url(#paint15_linear_426_4753)"/>
<path fill-rule="evenodd" clip-rule="evenodd" d="M79.6909 67.4332C73.7821 68.5764 69.101 73.2809 67.9636 79.2184L70.486 82.0196C70.486 75.3913 75.8822 69.9683 82.4781 69.9683L79.6909 67.4332Z" fill="url(#paint16_linear_426_4753)"/>
<path fill-rule="evenodd" clip-rule="evenodd" d="M65.8196 76.418H26.1373L23.9944 79.219H67.9628L65.8196 76.418Z" fill="url(#paint17_linear_426_4753)"/>
<path fill-rule="evenodd" clip-rule="evenodd" d="M67.9701 79.2188L23.9943 79.2188L21.4719 82.02H32.0279H61.9941H65.9365H70.4924L67.9701 79.2188Z" fill="url(#paint18_linear_426_4753)"/>
<path fill-rule="evenodd" clip-rule="evenodd" d="M23.9867 79.2184C22.8494 73.2809 18.168 68.5765 12.2592 67.4333L9.47192 69.9683C16.0679 69.9683 21.4644 75.3913 21.4644 82.0197L23.9867 79.2184Z" fill="url(#paint19_linear_426_4753)"/>
<path fill-rule="evenodd" clip-rule="evenodd" d="M12.2593 67.4338C18.1681 68.5771 22.8495 73.2815 23.9868 79.219L26.1298 76.418C24.3792 71.1893 20.25 67.0399 15.0468 65.2809L12.2593 67.4338Z" fill="url(#paint20_linear_426_4753)"/>
<path fill-rule="evenodd" clip-rule="evenodd" d="M12.1461 33.5879L24.2925 45.7937L12.1461 57.9995L0 45.7937L12.1461 33.5879ZM12.1461 38.1509L4.54072 45.7937L12.1461 53.4365L19.7518 45.7937L12.1461 38.1509Z" fill="#75B1F5"/>
<path fill-rule="evenodd" clip-rule="evenodd" d="M2.27078 45.7943L12.1461 35.8693V33.5879L0 45.7937L2.27078 45.7943Z" fill="url(#paint21_linear_426_4753)"/>
<path fill-rule="evenodd" clip-rule="evenodd" d="M12.146 35.8691L2.271 45.7935H4.54065L12.146 38.1507V35.8691Z" fill="url(#paint22_linear_426_4753)"/>
<path fill-rule="evenodd" clip-rule="evenodd" d="M22.0219 45.7943L12.1462 35.8693V33.5879L24.2926 45.7937L22.0219 45.7943Z" fill="url(#paint23_linear_426_4753)"/>
<path fill-rule="evenodd" clip-rule="evenodd" d="M12.1462 35.8691L22.0216 45.7935H19.7519L12.1462 38.1507V35.8691Z" fill="url(#paint24_linear_426_4753)"/>
<path fill-rule="evenodd" clip-rule="evenodd" d="M2.2712 45.7936L12.1471 55.7186V58L0.000732422 45.7942L2.2712 45.7936Z" fill="url(#paint25_linear_426_4753)"/>
<path fill-rule="evenodd" clip-rule="evenodd" d="M12.1471 55.7187L2.27173 45.7943H4.54169L12.1471 53.437V55.7187Z" fill="url(#paint26_linear_426_4753)"/>
<path fill-rule="evenodd" clip-rule="evenodd" d="M22.0226 45.7936L12.147 55.7186V58L24.2928 45.7942L22.0226 45.7936Z" fill="url(#paint27_linear_426_4753)"/>
<path fill-rule="evenodd" clip-rule="evenodd" d="M12.147 55.7187L22.0217 45.7943H19.7524L12.147 53.437V55.7187Z" fill="url(#paint28_linear_426_4753)"/>
<path fill-rule="evenodd" clip-rule="evenodd" d="M4.54102 45.7939L12.1464 38.1508L19.7524 45.7939L12.1464 53.4369L4.54102 45.7939Z" fill="#6367E9"/>
<path fill-rule="evenodd" clip-rule="evenodd" d="M7.24707 45.7942L12.1464 40.8707L17.0461 45.7942L12.1464 50.7179L7.24707 45.7942Z" fill="url(#paint29_linear_426_4753)"/>
<path fill-rule="evenodd" clip-rule="evenodd" d="M7.24706 45.7939L12.1464 40.8704V38.1508L4.54102 45.7939H7.24706Z" fill="url(#paint30_linear_426_4753)"/>
<path fill-rule="evenodd" clip-rule="evenodd" d="M17.0461 45.7939L12.1465 40.8704V38.1508L19.7525 45.7939H17.0461Z" fill="url(#paint31_linear_426_4753)"/>
<path fill-rule="evenodd" clip-rule="evenodd" d="M7.24706 45.7821L12.1464 50.7059V53.4252L4.54102 45.7821H7.24706Z" fill="url(#paint32_linear_426_4753)"/>
<path fill-rule="evenodd" clip-rule="evenodd" d="M17.0461 45.7821L12.1465 50.7059V53.4252L19.7525 45.7821H17.0461Z" fill="url(#paint33_linear_426_4753)"/>
<path fill-rule="evenodd" clip-rule="evenodd" d="M79.618 33.5879L91.7644 45.7937L79.618 57.9995L67.4719 45.7937L79.618 33.5879ZM79.618 38.1509L72.0126 45.7937L79.618 53.4365L87.2237 45.7937L79.618 38.1509Z" fill="#75B1F5"/>
<path fill-rule="evenodd" clip-rule="evenodd" d="M69.7427 45.7943L79.6181 35.8693V33.5879L67.4719 45.7937L69.7427 45.7943Z" fill="url(#paint34_linear_426_4753)"/>
<path fill-rule="evenodd" clip-rule="evenodd" d="M79.6182 35.8691L69.7432 45.7935H72.0128L79.6182 38.1507V35.8691Z" fill="url(#paint35_linear_426_4753)"/>
<path fill-rule="evenodd" clip-rule="evenodd" d="M89.4937 45.7943L79.6182 35.8693V33.5879L91.7645 45.7937L89.4937 45.7943Z" fill="url(#paint36_linear_426_4753)"/>
<path fill-rule="evenodd" clip-rule="evenodd" d="M79.6182 35.8691L89.4935 45.7935H87.2238L79.6182 38.1507V35.8691Z" fill="url(#paint37_linear_426_4753)"/>
<path fill-rule="evenodd" clip-rule="evenodd" d="M69.7429 45.7936L79.6188 55.7186V58L67.4724 45.7942L69.7429 45.7936Z" fill="url(#paint38_linear_426_4753)"/>
<path fill-rule="evenodd" clip-rule="evenodd" d="M79.619 55.7187L69.7437 45.7943H72.0136L79.619 53.437V55.7187Z" fill="url(#paint39_linear_426_4753)"/>
<path fill-rule="evenodd" clip-rule="evenodd" d="M89.4945 45.7936L79.6189 55.7186V58L91.7647 45.7942L89.4945 45.7936Z" fill="url(#paint40_linear_426_4753)"/>
<path fill-rule="evenodd" clip-rule="evenodd" d="M79.6189 55.7187L89.4937 45.7943H87.224L79.6189 53.437V55.7187Z" fill="url(#paint41_linear_426_4753)"/>
<path fill-rule="evenodd" clip-rule="evenodd" d="M72.0129 45.7939L79.6183 38.1508L87.224 45.7939L79.6183 53.4369L72.0129 45.7939Z" fill="#6367E9"/>
<path fill-rule="evenodd" clip-rule="evenodd" d="M74.719 45.7942L79.6184 40.8707L84.5178 45.7942L79.6184 50.7179L74.719 45.7942Z" fill="url(#paint42_linear_426_4753)"/>
<path fill-rule="evenodd" clip-rule="evenodd" d="M74.7189 45.7939L79.6183 40.8704V38.1508L72.0129 45.7939H74.7189Z" fill="url(#paint43_linear_426_4753)"/>
<path fill-rule="evenodd" clip-rule="evenodd" d="M84.5178 45.7939L79.6184 40.8704V38.1508L87.2241 45.7939H84.5178Z" fill="url(#paint44_linear_426_4753)"/>
<path fill-rule="evenodd" clip-rule="evenodd" d="M74.7189 45.7821L79.6183 50.7059V53.4252L72.0129 45.7821H74.7189Z" fill="url(#paint45_linear_426_4753)"/>
<path fill-rule="evenodd" clip-rule="evenodd" d="M84.5178 45.7821L79.6184 50.7059V53.4252L87.2241 45.7821H84.5178Z" fill="url(#paint46_linear_426_4753)"/>
<defs>
<linearGradient id="paint0_linear_426_4753" x1="21.4719" y1="5.11863" x2="45.972" y2="5.11863" gradientUnits="userSpaceOnUse">
<stop stop-color="#8192CA"/>
<stop offset="0.71747" stop-color="#B4D9FF"/>
<stop offset="1" stop-color="#BBE6FF"/>
</linearGradient>
<linearGradient id="paint1_linear_426_4753" x1="45.9719" y1="5.11863" x2="70.472" y2="5.11863" gradientUnits="userSpaceOnUse">
<stop stop-color="#506488"/>
<stop offset="1" stop-color="#7F94BA"/>
</linearGradient>
<linearGradient id="paint2_linear_426_4753" x1="24.1274" y1="6.36221" x2="45.9721" y2="6.36221" gradientUnits="userSpaceOnUse">
<stop stop-color="#4A65A6"/>
<stop offset="1" stop-color="#A9E4FF"/>
</linearGradient>
<linearGradient id="paint3_linear_426_4753" x1="28.7109" y1="85.0098" x2="45.9718" y2="85.0098" gradientUnits="userSpaceOnUse">
<stop stop-color="#506488"/>
<stop offset="1" stop-color="#7F94BA"/>
</linearGradient>
<linearGradient id="paint4_linear_426_4753" x1="45.9719" y1="85.0098" x2="63.2331" y2="85.0098" gradientUnits="userSpaceOnUse">
<stop stop-color="#506488"/>
<stop offset="1" stop-color="#697A98"/>
</linearGradient>
<linearGradient id="paint5_linear_426_4753" x1="62.0933" y1="13.0386" x2="62.0933" y2="10.2374" gradientUnits="userSpaceOnUse">
<stop stop-color="#BBECFF"/>
<stop offset="1" stop-color="#BBEFFF"/>
</linearGradient>
<linearGradient id="paint6_linear_426_4753" x1="62.0935" y1="15.8398" x2="62.0935" y2="13.0388" gradientUnits="userSpaceOnUse">
<stop stop-color="#435C83"/>
<stop offset="1" stop-color="#92B4FA"/>
</linearGradient>
<linearGradient id="paint7_linear_426_4753" x1="9.47192" y1="17.5304" x2="23.9867" y2="17.5304" gradientUnits="userSpaceOnUse">
<stop stop-color="#91A8CD"/>
<stop offset="1" stop-color="#BBE6FF"/>
</linearGradient>
<linearGradient id="paint8_linear_426_4753" x1="12.2593" y1="20.008" x2="26.1298" y2="20.008" gradientUnits="userSpaceOnUse">
<stop stop-color="#435C83"/>
<stop offset="1" stop-color="#92B4FA"/>
</linearGradient>
<linearGradient id="paint9_linear_426_4753" x1="-0.151213" y1="-25.0777" x2="12.2592" y2="-25.0777" gradientUnits="userSpaceOnUse">
<stop stop-color="#91A8CD"/>
<stop offset="1" stop-color="#BBE6FF"/>
</linearGradient>
<linearGradient id="paint10_linear_426_4753" x1="12.2593" y1="-25.0778" x2="15.0468" y2="-25.0778" gradientUnits="userSpaceOnUse">
<stop stop-color="#6479AF"/>
<stop offset="1" stop-color="#465F84"/>
</linearGradient>
<linearGradient id="paint11_linear_426_4753" x1="75.2209" y1="24.8234" x2="75.2209" y2="10.2372" gradientUnits="userSpaceOnUse">
<stop stop-color="#91A8CD"/>
<stop offset="1" stop-color="#BBE6FF"/>
</linearGradient>
<linearGradient id="paint12_linear_426_4753" x1="65.8203" y1="20.0079" x2="79.6908" y2="20.0079" gradientUnits="userSpaceOnUse">
<stop stop-color="#92B4FA"/>
<stop offset="1" stop-color="#435C83"/>
</linearGradient>
<linearGradient id="paint13_linear_426_4753" x1="76.9033" y1="-25.0779" x2="79.6909" y2="-25.0779" gradientUnits="userSpaceOnUse">
<stop stop-color="#91A8CD"/>
<stop offset="1" stop-color="#BBE6FF"/>
</linearGradient>
<linearGradient id="paint14_linear_426_4753" x1="79.6909" y1="-25.0705" x2="82.4782" y2="-25.0705" gradientUnits="userSpaceOnUse">
<stop stop-color="#6479AF"/>
<stop offset="1" stop-color="#465F84"/>
</linearGradient>
<linearGradient id="paint15_linear_426_4753" x1="65.8203" y1="72.2499" x2="79.6908" y2="72.2499" gradientUnits="userSpaceOnUse">
<stop stop-color="#AFC9F8"/>
<stop offset="1" stop-color="#BBECFF"/>
</linearGradient>
<linearGradient id="paint16_linear_426_4753" x1="67.9636" y1="74.7264" x2="82.4781" y2="74.7264" gradientUnits="userSpaceOnUse">
<stop stop-color="#435C83"/>
<stop offset="1" stop-color="#92B4FA"/>
</linearGradient>
<linearGradient id="paint17_linear_426_4753" x1="61.9945" y1="79.219" x2="61.9945" y2="76.418" gradientUnits="userSpaceOnUse">
<stop stop-color="#AFC9F8"/>
<stop offset="1" stop-color="#BBECFF"/>
</linearGradient>
<linearGradient id="paint18_linear_426_4753" x1="61.9944" y1="82.02" x2="61.9944" y2="79.2188" gradientUnits="userSpaceOnUse">
<stop stop-color="#3E5482"/>
<stop offset="1" stop-color="#4D6698"/>
</linearGradient>
<linearGradient id="paint19_linear_426_4753" x1="9.47192" y1="74.7265" x2="23.9867" y2="74.7265" gradientUnits="userSpaceOnUse">
<stop stop-color="#92B4FA"/>
<stop offset="1" stop-color="#435C83"/>
</linearGradient>
<linearGradient id="paint20_linear_426_4753" x1="12.2593" y1="72.25" x2="26.1298" y2="72.25" gradientUnits="userSpaceOnUse">
<stop stop-color="#BBECFF"/>
<stop offset="1" stop-color="#AFC9F8"/>
</linearGradient>
<linearGradient id="paint21_linear_426_4753" x1="0" y1="39.6911" x2="12.1461" y2="39.6911" gradientUnits="userSpaceOnUse">
<stop stop-color="#BBECFF"/>
<stop offset="1" stop-color="#BBEFFF"/>
</linearGradient>
<linearGradient id="paint22_linear_426_4753" x1="2.271" y1="40.8313" x2="12.146" y2="40.8313" gradientUnits="userSpaceOnUse">
<stop stop-color="#5D6E9B"/>
<stop offset="1" stop-color="#465B84"/>
</linearGradient>
<linearGradient id="paint23_linear_426_4753" x1="12.1462" y1="39.6911" x2="24.2926" y2="39.6911" gradientUnits="userSpaceOnUse">
<stop stop-color="#AEC7FF"/>
<stop offset="1" stop-color="#566B8D"/>
</linearGradient>
<linearGradient id="paint24_linear_426_4753" x1="12.1462" y1="40.8313" x2="22.0216" y2="40.8313" gradientUnits="userSpaceOnUse">
<stop stop-color="#56678D"/>
<stop offset="1" stop-color="#96AFF1"/>
</linearGradient>
<linearGradient id="paint25_linear_426_4753" x1="0.000732422" y1="51.8968" x2="12.1471" y2="51.8968" gradientUnits="userSpaceOnUse">
<stop stop-color="#AEC7FF"/>
<stop offset="1" stop-color="#566B8D"/>
</linearGradient>
<linearGradient id="paint26_linear_426_4753" x1="2.27173" y1="50.7565" x2="12.1471" y2="50.7565" gradientUnits="userSpaceOnUse">
<stop stop-color="#435C83"/>
<stop offset="1" stop-color="#92B4FA"/>
</linearGradient>
<linearGradient id="paint27_linear_426_4753" x1="12.147" y1="51.8968" x2="24.2928" y2="51.8968" gradientUnits="userSpaceOnUse">
<stop stop-color="#5D6E9B"/>
<stop offset="1" stop-color="#465B84"/>
</linearGradient>
<linearGradient id="paint28_linear_426_4753" x1="12.147" y1="50.7565" x2="22.0217" y2="50.7565" gradientUnits="userSpaceOnUse">
<stop stop-color="#AFC9F8"/>
<stop offset="1" stop-color="#BBECFF"/>
</linearGradient>
<linearGradient id="paint29_linear_426_4753" x1="12.1466" y1="50.7179" x2="12.1466" y2="40.8707" gradientUnits="userSpaceOnUse">
<stop stop-color="#0C71E9"/>
<stop offset="1" stop-color="#14CCFF"/>
</linearGradient>
<linearGradient id="paint30_linear_426_4753" x1="9.69681" y1="43.3321" x2="8.33699" y2="41.9789" gradientUnits="userSpaceOnUse">
<stop stop-color="#14CEFF"/>
<stop offset="1" stop-color="#1494FF"/>
</linearGradient>
<linearGradient id="paint31_linear_426_4753" x1="12.1465" y1="41.9724" x2="19.7525" y2="41.9724" gradientUnits="userSpaceOnUse">
<stop stop-color="#14A0FF"/>
<stop offset="1" stop-color="#0042BA"/>
</linearGradient>
<linearGradient id="paint32_linear_426_4753" x1="4.54102" y1="49.6037" x2="12.1464" y2="49.6037" gradientUnits="userSpaceOnUse">
<stop stop-color="#14A0FF"/>
<stop offset="1" stop-color="#0042BA"/>
</linearGradient>
<linearGradient id="paint33_linear_426_4753" x1="15.9496" y1="49.6037" x2="14.5898" y2="48.2506" gradientUnits="userSpaceOnUse">
<stop stop-color="#14A8FF"/>
<stop offset="1" stop-color="#0042BA"/>
</linearGradient>
<linearGradient id="paint34_linear_426_4753" x1="67.4719" y1="39.6911" x2="79.6181" y2="39.6911" gradientUnits="userSpaceOnUse">
<stop stop-color="#BBECFF"/>
<stop offset="1" stop-color="#BBEFFF"/>
</linearGradient>
<linearGradient id="paint35_linear_426_4753" x1="69.7432" y1="-69.0447" x2="79.6182" y2="-69.0447" gradientUnits="userSpaceOnUse">
<stop stop-color="#5D6E9B"/>
<stop offset="1" stop-color="#465B84"/>
</linearGradient>
<linearGradient id="paint36_linear_426_4753" x1="79.6182" y1="-69.0446" x2="91.7645" y2="-69.0446" gradientUnits="userSpaceOnUse">
<stop stop-color="#AEC7FF"/>
<stop offset="1" stop-color="#566B8D"/>
</linearGradient>
<linearGradient id="paint37_linear_426_4753" x1="79.6182" y1="-69.0447" x2="89.4935" y2="-69.0447" gradientUnits="userSpaceOnUse">
<stop stop-color="#56678D"/>
<stop offset="1" stop-color="#96AFF1"/>
</linearGradient>
<linearGradient id="paint38_linear_426_4753" x1="67.4724" y1="51.8968" x2="79.6188" y2="51.8968" gradientUnits="userSpaceOnUse">
<stop stop-color="#AEC7FF"/>
<stop offset="1" stop-color="#566B8D"/>
</linearGradient>
<linearGradient id="paint39_linear_426_4753" x1="69.7437" y1="50.7565" x2="79.619" y2="50.7565" gradientUnits="userSpaceOnUse">
<stop stop-color="#435C83"/>
<stop offset="1" stop-color="#92B4FA"/>
</linearGradient>
<linearGradient id="paint40_linear_426_4753" x1="79.6189" y1="51.8968" x2="91.7647" y2="51.8968" gradientUnits="userSpaceOnUse">
<stop stop-color="#5D6E9B"/>
<stop offset="1" stop-color="#465B84"/>
</linearGradient>
<linearGradient id="paint41_linear_426_4753" x1="79.6189" y1="50.7565" x2="89.4937" y2="50.7565" gradientUnits="userSpaceOnUse">
<stop stop-color="#AFC9F8"/>
<stop offset="1" stop-color="#BBECFF"/>
</linearGradient>
<linearGradient id="paint42_linear_426_4753" x1="79.6184" y1="-69.0445" x2="79.6184" y2="-69.0445" gradientUnits="userSpaceOnUse">
<stop stop-color="#0C71E9"/>
<stop offset="1" stop-color="#14CCFF"/>
</linearGradient>
<linearGradient id="paint43_linear_426_4753" x1="77.1687" y1="43.3321" x2="75.8089" y2="41.9789" gradientUnits="userSpaceOnUse">
<stop stop-color="#14CEFF"/>
<stop offset="1" stop-color="#1494FF"/>
</linearGradient>
<linearGradient id="paint44_linear_426_4753" x1="79.6184" y1="-69.0447" x2="87.2241" y2="-69.0447" gradientUnits="userSpaceOnUse">
<stop stop-color="#14A0FF"/>
<stop offset="1" stop-color="#0042BA"/>
</linearGradient>
<linearGradient id="paint45_linear_426_4753" x1="72.0129" y1="49.6037" x2="79.6183" y2="49.6037" gradientUnits="userSpaceOnUse">
<stop stop-color="#14A0FF"/>
<stop offset="1" stop-color="#0042BA"/>
</linearGradient>
<linearGradient id="paint46_linear_426_4753" x1="83.4212" y1="49.6037" x2="82.0615" y2="48.2505" gradientUnits="userSpaceOnUse">
<stop stop-color="#14A8FF"/>
<stop offset="1" stop-color="#0042BA"/>
</linearGradient>
</defs>
</svg>
