<svg width="28" height="28" viewBox="0 0 28 28" fill="none" xmlns="http://www.w3.org/2000/svg">
<path d="M23.3275 7.80267C24.3734 7.17744 25.1559 6.19295 25.529 5.03301C24.5463 5.61611 23.4711 6.02686 22.3498 6.24751C20.7954 4.60312 18.3324 4.20295 16.3373 5.27061C14.3422 6.33826 13.3088 8.60941 13.8145 10.815C9.78906 10.6129 6.03864 8.71141 3.49652 5.58367C2.16983 7.872 2.8478 10.7973 5.04585 12.2687C4.25101 12.2431 3.4738 12.0279 2.77902 11.641C2.77902 11.662 2.77902 11.683 2.77902 11.704C2.77948 14.0877 4.45945 16.1409 6.79585 16.6133C6.05859 16.8139 5.28526 16.8434 4.53485 16.6997C5.19192 18.7382 7.07066 20.1347 9.21202 20.1763C7.43849 21.5683 5.24824 22.3232 2.99368 22.3195C2.59407 22.3201 2.19476 22.2971 1.79785 22.2507C4.08731 23.7219 6.75195 24.5028 9.47335 24.5C13.2595 24.526 16.8981 23.0334 19.5752 20.356C22.2523 17.6787 23.7447 14.04 23.7183 10.2538C23.7183 10.0368 23.7133 9.82101 23.7032 9.60634C24.6837 8.89771 25.53 8.01985 26.2022 7.01401C25.2887 7.41891 24.3197 7.68475 23.3275 7.80267Z" fill="#F9E17F"/>
</svg>
