<svg width="56" height="35" viewBox="0 0 56 35" fill="none" xmlns="http://www.w3.org/2000/svg">
    <path d="M11.4686 6.85927C20.5987 -2.20065 35.4015 -2.20065 44.5316 6.85927L45.6304 7.94965C46.0869 8.40265 46.0869 9.1371 45.6304 9.59009L41.8716 13.3201C41.6433 13.5466 41.2733 13.5466 41.045 13.3201L39.5329 11.8196C33.1635 5.49914 22.8367 5.49914 16.4673 11.8196L14.848 13.4265C14.6197 13.653 14.2497 13.653 14.0214 13.4265L10.2626 9.69651C9.80606 9.24351 9.80606 8.50906 10.2626 8.05606L11.4686 6.85927ZM52.3053 14.5732L55.6507 17.8929C56.1072 18.3459 56.1072 19.0804 55.6507 19.5333L40.5661 34.5022C40.1096 34.9552 39.3695 34.9552 38.9129 34.5022C38.9129 34.5022 38.9129 34.5022 38.9129 34.5022L28.2068 23.8784C28.0927 23.7651 27.9077 23.7651 27.7935 23.8784C27.7935 23.8784 27.7935 23.8784 27.7935 23.8784L17.0877 34.5022C16.6312 34.9552 15.891 34.9552 15.4345 34.5022C15.4345 34.5022 15.4345 34.5022 15.4345 34.5022L0.34952 19.5332C-0.106985 19.0802 -0.106985 18.3457 0.34952 17.8927L3.69491 14.573C4.15141 14.12 4.89156 14.12 5.34806 14.573L16.0543 25.197C16.1684 25.3103 16.3535 25.3103 16.4676 25.197C16.4676 25.197 16.4676 25.197 16.4676 25.197L27.1733 14.573C27.6298 14.12 28.37 14.12 28.8265 14.573C28.8265 14.573 28.8265 14.573 28.8265 14.573L39.5328 25.197C39.6469 25.3103 39.8319 25.3103 39.946 25.197L50.6521 14.5732C51.1086 14.1202 51.8488 14.1202 52.3053 14.5732Z"
          fill="#3B99FC"/>
</svg>
