<svg width="28" height="28" viewBox="0 0 28 28" fill="none" xmlns="http://www.w3.org/2000/svg">
<path fill-rule="evenodd" clip-rule="evenodd" d="M0.728415 21.1875C0.413826 20.0397 0 17.8063 0 13.9999C0 10.1935 0.413844 7.96019 0.728444 6.81236C0.812539 6.49887 0.97403 6.20894 1.19954 5.96659C1.42504 5.72423 1.70807 5.53642 2.02518 5.41873C6.53173 3.77305 14 3.81824 14 3.81824C14 3.81824 21.4683 3.77305 25.9749 5.41874C26.292 5.53644 26.575 5.72425 26.8005 5.96661C27.026 6.20896 27.1875 6.4989 27.2716 6.81238C27.5862 7.96021 28 10.1935 28 13.9999C28 17.8063 27.5862 20.0397 27.2716 21.1875C27.1875 21.501 27.026 21.7909 26.8005 22.0333C26.575 22.2756 26.2919 22.4634 25.9748 22.5811C21.4683 24.2268 14 24.1816 14 24.1816C14 24.1816 6.53165 24.2268 2.02514 22.5811C1.70803 22.4634 1.425 22.2756 1.1995 22.0333C0.973994 21.7909 0.812507 21.501 0.728415 21.1875ZM10.5 9.33301L18.6667 13.9997L10.5 18.6663V9.33301Z" fill="#F9E17F"/>
</svg>
